<svg id="my-svg" width="100%" xmlns="http://www.w3.org/2000/svg" xmlns:xlink="http://www.w3.org/1999/xlink" class="classDiagram" style="max-width: 462.855px; background-color: white;" viewBox="0 0 462.85546875 1054" role="graphics-document document" aria-roledescription="class"><style>#my-svg{font-family:"trebuchet ms",verdana,arial,sans-serif;font-size:16px;fill:#333;}@keyframes edge-animation-frame{from{stroke-dashoffset:0;}}@keyframes dash{to{stroke-dashoffset:0;}}#my-svg .edge-animation-slow{stroke-dasharray:9,5!important;stroke-dashoffset:900;animation:dash 50s linear infinite;stroke-linecap:round;}#my-svg .edge-animation-fast{stroke-dasharray:9,5!important;stroke-dashoffset:900;animation:dash 20s linear infinite;stroke-linecap:round;}#my-svg .error-icon{fill:#552222;}#my-svg .error-text{fill:#552222;stroke:#552222;}#my-svg .edge-thickness-normal{stroke-width:1px;}#my-svg .edge-thickness-thick{stroke-width:3.5px;}#my-svg .edge-pattern-solid{stroke-dasharray:0;}#my-svg .edge-thickness-invisible{stroke-width:0;fill:none;}#my-svg .edge-pattern-dashed{stroke-dasharray:3;}#my-svg .edge-pattern-dotted{stroke-dasharray:2;}#my-svg .marker{fill:#333333;stroke:#333333;}#my-svg .marker.cross{stroke:#333333;}#my-svg svg{font-family:"trebuchet ms",verdana,arial,sans-serif;font-size:16px;}#my-svg p{margin:0;}#my-svg g.classGroup text{fill:#9370DB;stroke:none;font-family:"trebuchet ms",verdana,arial,sans-serif;font-size:10px;}#my-svg g.classGroup text .title{font-weight:bolder;}#my-svg .cluster-label text{fill:#333;}#my-svg .cluster-label span{color:#333;}#my-svg .cluster-label span p{background-color:transparent;}#my-svg .cluster rect{fill:#ffffde;stroke:#aaaa33;stroke-width:1px;}#my-svg .cluster text{fill:#333;}#my-svg .cluster span{color:#333;}#my-svg .nodeLabel,#my-svg .edgeLabel{color:#131300;}#my-svg .noteLabel .nodeLabel,#my-svg .noteLabel .edgeLabel{color:black;}#my-svg .edgeLabel .label rect{fill:#ECECFF;}#my-svg .label text{fill:#131300;}#my-svg .labelBkg{background:#ECECFF;}#my-svg .edgeLabel .label span{background:#ECECFF;}#my-svg .classTitle{font-weight:bolder;}#my-svg .node rect,#my-svg .node circle,#my-svg .node ellipse,#my-svg .node polygon,#my-svg .node path{fill:#ECECFF;stroke:#9370DB;stroke-width:1;}#my-svg .divider{stroke:#9370DB;stroke-width:1;}#my-svg g.clickable{cursor:pointer;}#my-svg g.classGroup rect{fill:#ECECFF;stroke:#9370DB;}#my-svg g.classGroup line{stroke:#9370DB;stroke-width:1;}#my-svg .classLabel .box{stroke:none;stroke-width:0;fill:#ECECFF;opacity:0.5;}#my-svg .classLabel .label{fill:#9370DB;font-size:10px;}#my-svg .relation{stroke:#333333;stroke-width:1;fill:none;}#my-svg .dashed-line{stroke-dasharray:3;}#my-svg .dotted-line{stroke-dasharray:1 2;}#my-svg [id$="-compositionStart"],#my-svg .composition{fill:#333333!important;stroke:#333333!important;stroke-width:1;}#my-svg [id$="-compositionEnd"],#my-svg .composition{fill:#333333!important;stroke:#333333!important;stroke-width:1;}#my-svg [id$="-dependencyStart"],#my-svg .dependency{fill:#333333!important;stroke:#333333!important;stroke-width:1;}#my-svg [id$="-dependencyEnd"],#my-svg .dependency{fill:#333333!important;stroke:#333333!important;stroke-width:1;}#my-svg [id$="-extensionStart"],#my-svg .extension{fill:transparent!important;stroke:#333333!important;stroke-width:1;}#my-svg [id$="-extensionEnd"],#my-svg .extension{fill:transparent!important;stroke:#333333!important;stroke-width:1;}#my-svg [id$="-aggregationStart"],#my-svg .aggregation{fill:transparent!important;stroke:#333333!important;stroke-width:1;}#my-svg [id$="-aggregationEnd"],#my-svg .aggregation{fill:transparent!important;stroke:#333333!important;stroke-width:1;}#my-svg [id$="-lollipopStart"],#my-svg .lollipop{fill:#ECECFF!important;stroke:#333333!important;stroke-width:1;}#my-svg [id$="-lollipopEnd"],#my-svg .lollipop{fill:#ECECFF!important;stroke:#333333!important;stroke-width:1;}#my-svg .edgeTerminals{font-size:11px;line-height:initial;}#my-svg .classTitleText{text-anchor:middle;font-size:18px;fill:#333;}#my-svg .edgeLabel[data-look="neo"]{background-color:rgba(232,232,232, 0.8);text-align:center;}#my-svg .edgeLabel[data-look="neo"] p{background-color:rgba(232,232,232, 0.8);}#my-svg .edgeLabel[data-look="neo"] rect{opacity:0.5;background-color:rgba(232,232,232, 0.8);fill:rgba(232,232,232, 0.8);}#my-svg .label-icon{display:inline-block;height:1em;overflow:visible;vertical-align:-0.125em;}#my-svg .node .label-icon path{fill:currentColor;stroke:revert;stroke-width:revert;}#my-svg .node .neo-node{stroke:#9370DB;}#my-svg [data-look="neo"].node rect,#my-svg [data-look="neo"].cluster rect,#my-svg [data-look="neo"].node polygon{stroke:#9370DB;filter:drop-shadow(1px 2px 2px rgba(185, 185, 185, 1));}#my-svg [data-look="neo"].node path{stroke:#9370DB;stroke-width:1px;}#my-svg [data-look="neo"].node .outer-path{filter:drop-shadow(1px 2px 2px rgba(185, 185, 185, 1));}#my-svg [data-look="neo"].node .neo-line path{stroke:#9370DB;filter:none;}#my-svg [data-look="neo"].node circle{stroke:#9370DB;filter:drop-shadow(1px 2px 2px rgba(185, 185, 185, 1));}#my-svg [data-look="neo"].node circle .state-start{fill:#000000;}#my-svg [data-look="neo"].icon-shape .icon{fill:#9370DB;filter:drop-shadow(1px 2px 2px rgba(185, 185, 185, 1));}#my-svg [data-look="neo"].icon-shape .icon-neo path{stroke:#9370DB;filter:drop-shadow(1px 2px 2px rgba(185, 185, 185, 1));}#my-svg :root{--mermaid-font-family:"trebuchet ms",verdana,arial,sans-serif;}</style><g><defs><marker id="my-svg_class-aggregationStart" class="marker aggregation class" refX="18" refY="7" markerWidth="190" markerHeight="240" orient="auto"><path d="M 18,7 L9,13 L1,7 L9,1 Z"/></marker></defs><defs><marker id="my-svg_class-aggregationEnd" class="marker aggregation class" refX="1" refY="7" markerWidth="20" markerHeight="28" orient="auto"><path d="M 18,7 L9,13 L1,7 L9,1 Z"/></marker></defs><defs><marker id="my-svg_class-aggregationStart-margin" class="marker aggregation class" refX="15" refY="7" markerWidth="190" markerHeight="240" orient="auto" markerUnits="userSpaceOnUse"><path d="M 18,7 L9,13 L1,7 L9,1 Z" style="stroke-width: 2;"/></marker></defs><defs><marker id="my-svg_class-aggregationEnd-margin" class="marker aggregation class" refX="1" refY="7" markerWidth="20" markerHeight="28" orient="auto" markerUnits="userSpaceOnUse"><path d="M 18,7 L9,13 L1,7 L9,1 Z" style="stroke-width: 2;"/></marker></defs><defs><marker id="my-svg_class-extensionStart" class="marker extension class" refX="18" refY="7" markerWidth="190" markerHeight="240" orient="auto" markerUnits="userSpaceOnUse"><path d="M 1,7 L18,13 V 1 Z"/></marker></defs><defs><marker id="my-svg_class-extensionEnd" class="marker extension class" refX="1" refY="7" markerWidth="20" markerHeight="28" orient="auto"><path d="M 1,1 V 13 L18,7 Z"/></marker></defs><marker id="my-svg_class-extensionStart-margin" class="marker extension class" refX="18" refY="7" markerWidth="20" markerHeight="28" orient="auto" markerUnits="userSpaceOnUse" viewBox="0 0 20 14"><polygon points="10,7 18,13 18,1" style="stroke-width: 2; stroke-dasharray: 0;"/></marker><defs><marker id="my-svg_class-extensionEnd-margin" class="marker extension class" refX="9" refY="7" markerWidth="20" markerHeight="28" orient="auto" markerUnits="userSpaceOnUse" viewBox="0 0 20 14"><polygon points="10,1 10,13 18,7" style="stroke-width: 2; stroke-dasharray: 0;"/></marker></defs><defs><marker id="my-svg_class-compositionStart" class="marker composition class" refX="18" refY="7" markerWidth="190" markerHeight="240" orient="auto"><path d="M 18,7 L9,13 L1,7 L9,1 Z"/></marker></defs><defs><marker id="my-svg_class-compositionEnd" class="marker composition class" refX="1" refY="7" markerWidth="20" markerHeight="28" orient="auto"><path d="M 18,7 L9,13 L1,7 L9,1 Z"/></marker></defs><defs><marker id="my-svg_class-compositionStart-margin" class="marker composition class" refX="15" refY="7" markerWidth="190" markerHeight="240" orient="auto" markerUnits="userSpaceOnUse"><path viewBox="0 0 15 15" d="M 18,7 L9,13 L1,7 L9,1 Z" style="stroke-width: 0;"/></marker></defs><defs><marker id="my-svg_class-compositionEnd-margin" class="marker composition class" refX="3.5" refY="7" markerWidth="20" markerHeight="28" orient="auto" markerUnits="userSpaceOnUse"><path d="M 18,7 L9,13 L1,7 L9,1 Z" style="stroke-width: 0;"/></marker></defs><defs><marker id="my-svg_class-dependencyStart" class="marker dependency class" refX="6" refY="7" markerWidth="190" markerHeight="240" orient="auto"><path d="M 5,7 L9,13 L1,7 L9,1 Z"/></marker></defs><defs><marker id="my-svg_class-dependencyEnd" class="marker dependency class" refX="13" refY="7" markerWidth="20" markerHeight="28" orient="auto"><path d="M 18,7 L9,13 L14,7 L9,1 Z"/></marker></defs><defs><marker id="my-svg_class-dependencyStart-margin" class="marker dependency class" refX="4" refY="7" markerWidth="190" markerHeight="240" orient="auto" markerUnits="userSpaceOnUse"><path d="M 5,7 L9,13 L1,7 L9,1 Z" style="stroke-width: 0;"/></marker></defs><defs><marker id="my-svg_class-dependencyEnd-margin" class="marker dependency class" refX="16" refY="7" markerWidth="20" markerHeight="28" orient="auto" markerUnits="userSpaceOnUse"><path d="M 18,7 L9,13 L14,7 L9,1 Z" style="stroke-width: 0;"/></marker></defs><defs><marker id="my-svg_class-lollipopStart" class="marker lollipop class" refX="13" refY="7" markerWidth="190" markerHeight="240" orient="auto"><circle fill="transparent" cx="7" cy="7" r="6"/></marker></defs><defs><marker id="my-svg_class-lollipopEnd" class="marker lollipop class" refX="1" refY="7" markerWidth="190" markerHeight="240" orient="auto"><circle fill="transparent" cx="7" cy="7" r="6"/></marker></defs><defs><marker id="my-svg_class-lollipopStart-margin" class="marker lollipop class" refX="13" refY="7" markerWidth="190" markerHeight="240" orient="auto" markerUnits="userSpaceOnUse"><circle fill="transparent" cx="7" cy="7" r="6" stroke-width="2"/></marker></defs><defs><marker id="my-svg_class-lollipopEnd-margin" class="marker lollipop class" refX="1" refY="7" markerWidth="190" markerHeight="240" orient="auto" markerUnits="userSpaceOnUse"><circle fill="transparent" cx="7" cy="7" r="6" stroke-width="2"/></marker></defs><g class="root"><g class="clusters"/><g class="edgePaths"><path d="M153.051,212.501L146.253,220.584C139.456,228.667,125.861,244.834,119.063,258.083C112.266,271.333,112.266,281.667,112.266,286.833L112.266,292" id="my-svg-id_User_Document_1" class="edge-thickness-normal edge-pattern-solid relation" style=";;;" data-edge="true" data-et="edge" data-id="id_User_Document_1" data-points="W3sieCI6MTUzLjA1MDc4MTI1LCJ5IjoyMTIuNTAwOTkzMDgwNDcxNTd9LHsieCI6MTEyLjI2NTYyNSwieSI6MjYxfSx7IngiOjExMi4yNjU2MjUsInkiOjI5OH1d" data-look="classic" marker-end="url(#my-svg_class-dependencyEnd)"/><path d="M112.266,514L112.266,520.167C112.266,526.333,112.266,538.667,112.266,554C112.266,569.333,112.266,587.667,112.266,596.833L112.266,606" id="my-svg-id_Document_DocumentChunk_2" class="edge-thickness-normal edge-pattern-solid relation" style=";;;" data-edge="true" data-et="edge" data-id="id_Document_DocumentChunk_2" data-points="W3sieCI6MTEyLjI2NTYyNSwieSI6NTE0fSx7IngiOjExMi4yNjU2MjUsInkiOjU1MX0seyJ4IjoxMTIuMjY1NjI1LCJ5Ijo2MTJ9XQ==" data-look="classic" marker-end="url(#my-svg_class-dependencyEnd)"/><path d="M315.355,212.501L322.153,220.584C328.951,228.667,342.546,244.834,349.343,262.083C356.141,279.333,356.141,297.667,356.141,306.833L356.141,316" id="my-svg-id_User_ChatSession_3" class="edge-thickness-normal edge-pattern-solid relation" style=";;;" data-edge="true" data-et="edge" data-id="id_User_ChatSession_3" data-points="W3sieCI6MzE1LjM1NTQ2ODc1LCJ5IjoyMTIuNTAwOTkzMDgwNDcxNTd9LHsieCI6MzU2LjE0MDYyNSwieSI6MjYxfSx7IngiOjM1Ni4xNDA2MjUsInkiOjMyMn1d" data-look="classic" marker-end="url(#my-svg_class-dependencyEnd)"/><path d="M356.141,490L356.141,500.167C356.141,510.333,356.141,530.667,356.141,546C356.141,561.333,356.141,571.667,356.141,576.833L356.141,582" id="my-svg-id_ChatSession_Message_4" class="edge-thickness-normal edge-pattern-solid relation" style=";;;" data-edge="true" data-et="edge" data-id="id_ChatSession_Message_4" data-points="W3sieCI6MzU2LjE0MDYyNSwieSI6NDkwfSx7IngiOjM1Ni4xNDA2MjUsInkiOjU1MX0seyJ4IjozNTYuMTQwNjI1LCJ5Ijo1ODh9XQ==" data-look="classic" marker-end="url(#my-svg_class-dependencyEnd)"/><path d="M356.141,804L356.141,810.167C356.141,816.333,356.141,828.667,356.141,840C356.141,851.333,356.141,861.667,356.141,866.833L356.141,872" id="my-svg-id_Message_Feedback_5" class="edge-thickness-normal edge-pattern-solid relation" style=";;;" data-edge="true" data-et="edge" data-id="id_Message_Feedback_5" data-points="W3sieCI6MzU2LjE0MDYyNSwieSI6ODA0fSx7IngiOjM1Ni4xNDA2MjUsInkiOjg0MX0seyJ4IjozNTYuMTQwNjI1LCJ5Ijo4Nzh9XQ==" data-look="classic" marker-end="url(#my-svg_class-dependencyEnd)"/></g><g class="edgeLabels"><g class="edgeLabel" transform="translate(112.265625, 261)"><g class="label" data-id="id_User_Document_1" transform="translate(-18.6796875, -12)"><foreignObject width="37.359375" height="24"><div xmlns="http://www.w3.org/1999/xhtml" class="labelBkg" style="display: table-cell; white-space: nowrap; line-height: 1.5; max-width: 200px; text-align: center;"><span class="edgeLabel"><p>owns</p></span></div></foreignObject></g></g><g class="edgeLabel" transform="translate(112.265625, 551)"><g class="label" data-id="id_Document_DocumentChunk_2" transform="translate(-31.578125, -12)"><foreignObject width="63.15625" height="24"><div xmlns="http://www.w3.org/1999/xhtml" class="labelBkg" style="display: table-cell; white-space: nowrap; line-height: 1.5; max-width: 200px; text-align: center;"><span class="edgeLabel"><p>split_into</p></span></div></foreignObject></g></g><g class="edgeLabel" transform="translate(356.140625, 261)"><g class="label" data-id="id_User_ChatSession_3" transform="translate(-19.5625, -12)"><foreignObject width="39.125" height="24"><div xmlns="http://www.w3.org/1999/xhtml" class="labelBkg" style="display: table-cell; white-space: nowrap; line-height: 1.5; max-width: 200px; text-align: center;"><span class="edgeLabel"><p>starts</p></span></div></foreignObject></g></g><g class="edgeLabel" transform="translate(356.140625, 551)"><g class="label" data-id="id_ChatSession_Message_4" transform="translate(-29.796875, -12)"><foreignObject width="59.59375" height="24"><div xmlns="http://www.w3.org/1999/xhtml" class="labelBkg" style="display: table-cell; white-space: nowrap; line-height: 1.5; max-width: 200px; text-align: center;"><span class="edgeLabel"><p>contains</p></span></div></foreignObject></g></g><g class="edgeLabel" transform="translate(356.140625, 841)"><g class="label" data-id="id_Message_Feedback_5" transform="translate(-29.7890625, -12)"><foreignObject width="59.578125" height="24"><div xmlns="http://www.w3.org/1999/xhtml" class="labelBkg" style="display: table-cell; white-space: nowrap; line-height: 1.5; max-width: 200px; text-align: center;"><span class="edgeLabel"><p>receives</p></span></div></foreignObject></g></g><g class="edgeTerminals" transform="translate(130.3072654708976, 216.24030953749093)"><g class="inner" transform="translate(-3.0625, -8.25)"><foreignObject width="6.125" height="16.5" style="width: 9px; height: 12px;"><div xmlns="http://www.w3.org/1999/xhtml" style="display: table-cell; white-space: nowrap; line-height: 1.5;"><span class="edgeLabel"><p>1</p></span></div></foreignObject></g></g><g class="edgeTerminals" transform="translate(97.26562750000015, 531.5000021428572)"><g class="inner" transform="translate(-3.0625, -8.25)"><foreignObject width="6.125" height="16.5" style="width: 9px; height: 12px;"><div xmlns="http://www.w3.org/1999/xhtml" style="display: table-cell; white-space: nowrap; line-height: 1.5;"><span class="edgeLabel"><p>1</p></span></div></foreignObject></g></g><g class="edgeTerminals" transform="translate(315.13856422089754, 235.54883354298067)"><g class="inner" transform="translate(-3.0625, -8.25)"><foreignObject width="6.125" height="16.5" style="width: 9px; height: 12px;"><div xmlns="http://www.w3.org/1999/xhtml" style="display: table-cell; white-space: nowrap; line-height: 1.5;"><span class="edgeLabel"><p>1</p></span></div></foreignObject></g></g><g class="edgeTerminals" transform="translate(341.14062750000016, 507.5000021428571)"><g class="inner" transform="translate(-3.0625, -8.25)"><foreignObject width="6.125" height="16.5" style="width: 9px; height: 12px;"><div xmlns="http://www.w3.org/1999/xhtml" style="display: table-cell; white-space: nowrap; line-height: 1.5;"><span class="edgeLabel"><p>1</p></span></div></foreignObject></g></g><g class="edgeTerminals" transform="translate(341.14062750000016, 821.5000021428572)"><g class="inner" transform="translate(-3.0625, -8.25)"><foreignObject width="6.125" height="16.5" style="width: 9px; height: 12px;"><div xmlns="http://www.w3.org/1999/xhtml" style="display: table-cell; white-space: nowrap; line-height: 1.5;"><span class="edgeLabel"><p>1</p></span></div></foreignObject></g></g><g class="edgeTerminals" transform="translate(122.26562749999984, 275.50000214285717)"><g class="inner" transform="translate(-8.2578125, -8.25)"/><foreignObject width="16.515625" height="16.5" style="width: 36px; height: 12px;"><div xmlns="http://www.w3.org/1999/xhtml" style="display: table-cell; white-space: nowrap; line-height: 1.5;"><span class="edgeLabel"><p>0..*</p></span></div></foreignObject></g><g class="edgeTerminals" transform="translate(122.26562749999984, 589.5000021428572)"><g class="inner" transform="translate(-8.2578125, -8.25)"/><foreignObject width="16.515625" height="16.5" style="width: 36px; height: 12px;"><div xmlns="http://www.w3.org/1999/xhtml" style="display: table-cell; white-space: nowrap; line-height: 1.5;"><span class="edgeLabel"><p>1..*</p></span></div></foreignObject></g><g class="edgeTerminals" transform="translate(366.1406274999998, 299.5000021428571)"><g class="inner" transform="translate(-8.2578125, -8.25)"/><foreignObject width="16.515625" height="16.5" style="width: 36px; height: 12px;"><div xmlns="http://www.w3.org/1999/xhtml" style="display: table-cell; white-space: nowrap; line-height: 1.5;"><span class="edgeLabel"><p>0..*</p></span></div></foreignObject></g><g class="edgeTerminals" transform="translate(366.1406274999998, 565.5000021428572)"><g class="inner" transform="translate(-8.2578125, -8.25)"/><foreignObject width="16.515625" height="16.5" style="width: 36px; height: 12px;"><div xmlns="http://www.w3.org/1999/xhtml" style="display: table-cell; white-space: nowrap; line-height: 1.5;"><span class="edgeLabel"><p>1..*</p></span></div></foreignObject></g><g class="edgeTerminals" transform="translate(366.1406274999998, 855.5000021428572)"><g class="inner" transform="translate(-9.1796875, -8.25)"/><foreignObject width="18.359375" height="16.5" style="width: 36px; height: 12px;"><div xmlns="http://www.w3.org/1999/xhtml" style="display: table-cell; white-space: nowrap; line-height: 1.5;"><span class="edgeLabel"><p>0..1</p></span></div></foreignObject></g></g><g class="nodes"><g class="node default" id="my-svg-classId-User-0" data-look="classic" transform="translate(234.203125, 116)"><g class="basic label-container outer-path"><path d="M-81.15234375 -108 L81.15234375 -108 L81.15234375 108 L-81.15234375 108" stroke="none" stroke-width="0" fill="#ECECFF" style=""/><path d="M-81.15234375 -108 C-40.338709472597905 -108, 0.4749248048041892 -108, 81.15234375 -108 M-81.15234375 -108 C-39.61316539940147 -108, 1.926012951197066 -108, 81.15234375 -108 M81.15234375 -108 C81.15234375 -63.52972055315289, 81.15234375 -19.059441106305783, 81.15234375 108 M81.15234375 -108 C81.15234375 -54.18366324882029, 81.15234375 -0.3673264976405761, 81.15234375 108 M81.15234375 108 C36.241233803139465 108, -8.66987614372107 108, -81.15234375 108 M81.15234375 108 C26.447250832488024 108, -28.257842085023952 108, -81.15234375 108 M-81.15234375 108 C-81.15234375 58.70456040550224, -81.15234375 9.409120811004485, -81.15234375 -108 M-81.15234375 108 C-81.15234375 33.69281538592236, -81.15234375 -40.61436922815528, -81.15234375 -108" stroke="#9370DB" stroke-width="1.3" fill="none" stroke-dasharray="0 0" style=""/></g><g class="annotation-group text" transform="translate(0, -84)"/><g class="label-group text" transform="translate(-17.7890625, -84)"><g class="label" style="font-weight: bolder" transform="translate(0,-12)"><foreignObject width="35.578125" height="24"><div xmlns="http://www.w3.org/1999/xhtml" style="display: table-cell; white-space: nowrap; line-height: 1.5; max-width: 81px; text-align: center;"><span class="nodeLabel markdown-node-label" style=""><p>User</p></span></div></foreignObject></g></g><g class="members-group text" transform="translate(-69.15234375, -36)"><g class="label" style="" transform="translate(0,-12)"><foreignObject width="65.359375" height="24"><div xmlns="http://www.w3.org/1999/xhtml" style="display: table-cell; white-space: nowrap; line-height: 1.5; max-width: 120px; text-align: center;"><span class="nodeLabel markdown-node-label" style=""><p>+UUID id</p></span></div></foreignObject></g><g class="label" style="" transform="translate(0,12)"><foreignObject width="91.15625" height="24"><div xmlns="http://www.w3.org/1999/xhtml" style="display: table-cell; white-space: nowrap; line-height: 1.5; max-width: 140px; text-align: center;"><span class="nodeLabel markdown-node-label" style=""><p>+string email</p></span></div></foreignObject></g><g class="label" style="" transform="translate(0,36)"><foreignObject width="79.59375" height="24"><div xmlns="http://www.w3.org/1999/xhtml" style="display: table-cell; white-space: nowrap; line-height: 1.5; max-width: 129px; text-align: center;"><span class="nodeLabel markdown-node-label" style=""><p>+string role</p></span></div></foreignObject></g><g class="label" style="" transform="translate(0,60)"><foreignObject width="106.296875" height="24"><div xmlns="http://www.w3.org/1999/xhtml" style="display: table-cell; white-space: nowrap; line-height: 1.5; max-width: 161px; text-align: center;"><span class="nodeLabel markdown-node-label" style=""><p>+bool is_active</p></span></div></foreignObject></g></g><g class="methods-group text" transform="translate(-69.15234375, 84)"><g class="label" style="" transform="translate(0,-12)"><foreignObject width="120.515625" height="24"><div xmlns="http://www.w3.org/1999/xhtml" style="display: table-cell; white-space: nowrap; line-height: 1.5; max-width: 167px; text-align: center;"><span class="nodeLabel markdown-node-label" style=""><p>+get_full_name()</p></span></div></foreignObject></g></g><g class="divider" style=""><path d="M-81.15234375 -60 C-24.065098654173845 -59.99964827112528, 33.02214644165231 -59.99929654225057, 81.15234375 -59.999 M-81.15234375 -60 C-37.20449622779714 -59.999729226258346, 6.743351294405727 -59.9994584525167, 81.15234375 -59.999" stroke="#9370DB" stroke-width="1.3" fill="none" stroke-dasharray="0 0" style=""/></g><g class="divider" style=""><path d="M-81.15234375 60 C-48.22445604206014 60.00020287699767, -15.29656833412028 60.00040575399534, 81.15234375 60.001 M-81.15234375 60 C-26.486515920103997 60.00033680991395, 28.179311909792006 60.00067361982789, 81.15234375 60.001" stroke="#9370DB" stroke-width="1.3" fill="none" stroke-dasharray="0 0" style=""/></g></g><g class="node default" id="my-svg-classId-Document-1" data-look="classic" transform="translate(112.265625, 406)"><g class="basic label-container outer-path"><path d="M-91.82421875 -108 L91.82421875 -108 L91.82421875 108 L-91.82421875 108" stroke="none" stroke-width="0" fill="#ECECFF" style=""/><path d="M-91.82421875 -108 C-45.95689164353683 -108, -0.08956453707365597 -108, 91.82421875 -108 M-91.82421875 -108 C-28.914402820289737 -108, 33.995413109420525 -108, 91.82421875 -108 M91.82421875 -108 C91.82421875 -45.604573950003825, 91.82421875 16.79085209999235, 91.82421875 108 M91.82421875 -108 C91.82421875 -46.00039317937579, 91.82421875 15.999213641248417, 91.82421875 108 M91.82421875 108 C53.569420909003064 108, 15.314623068006128 108, -91.82421875 108 M91.82421875 108 C18.61717697685745 108, -54.5898647962851 108, -91.82421875 108 M-91.82421875 108 C-91.82421875 64.06610204534257, -91.82421875 20.132204090685136, -91.82421875 -108 M-91.82421875 108 C-91.82421875 49.574376565213434, -91.82421875 -8.851246869573131, -91.82421875 -108" stroke="#9370DB" stroke-width="1.3" fill="none" stroke-dasharray="0 0" style=""/></g><g class="annotation-group text" transform="translate(0, -84)"/><g class="label-group text" transform="translate(-39.1171875, -84)"><g class="label" style="font-weight: bolder" transform="translate(0,-12)"><foreignObject width="78.234375" height="24"><div xmlns="http://www.w3.org/1999/xhtml" style="display: table-cell; white-space: nowrap; line-height: 1.5; max-width: 117px; text-align: center;"><span class="nodeLabel markdown-node-label" style=""><p>Document</p></span></div></foreignObject></g></g><g class="members-group text" transform="translate(-79.82421875, -36)"><g class="label" style="" transform="translate(0,-12)"><foreignObject width="65.359375" height="24"><div xmlns="http://www.w3.org/1999/xhtml" style="display: table-cell; white-space: nowrap; line-height: 1.5; max-width: 120px; text-align: center;"><span class="nodeLabel markdown-node-label" style=""><p>+UUID id</p></span></div></foreignObject></g><g class="label" style="" transform="translate(0,12)"><foreignObject width="113.390625" height="24"><div xmlns="http://www.w3.org/1999/xhtml" style="display: table-cell; white-space: nowrap; line-height: 1.5; max-width: 160px; text-align: center;"><span class="nodeLabel markdown-node-label" style=""><p>+string filename</p></span></div></foreignObject></g><g class="label" style="" transform="translate(0,36)"><foreignObject width="95.609375" height="24"><div xmlns="http://www.w3.org/1999/xhtml" style="display: table-cell; white-space: nowrap; line-height: 1.5; max-width: 140px; text-align: center;"><span class="nodeLabel markdown-node-label" style=""><p>+string status</p></span></div></foreignObject></g><g class="label" style="" transform="translate(0,60)"><foreignObject width="120.53125" height="24"><div xmlns="http://www.w3.org/1999/xhtml" style="display: table-cell; white-space: nowrap; line-height: 1.5; max-width: 175px; text-align: center;"><span class="nodeLabel markdown-node-label" style=""><p>+int total_chunks</p></span></div></foreignObject></g></g><g class="methods-group text" transform="translate(-79.82421875, 84)"><g class="label" style="" transform="translate(0,-12)"><foreignObject width="98.28125" height="24"><div xmlns="http://www.w3.org/1999/xhtml" style="display: table-cell; white-space: nowrap; line-height: 1.5; max-width: 144px; text-align: center;"><span class="nodeLabel markdown-node-label" style=""><p>+soft_delete()</p></span></div></foreignObject></g></g><g class="divider" style=""><path d="M-91.82421875 -60 C-53.495532015628235 -59.99979129315089, -15.166845281256471 -59.999582586301784, 91.82421875 -59.999 M-91.82421875 -60 C-25.875818006421355 -59.999640898655926, 40.07258273715729 -59.99928179731185, 91.82421875 -59.999" stroke="#9370DB" stroke-width="1.3" fill="none" stroke-dasharray="0 0" style=""/></g><g class="divider" style=""><path d="M-91.82421875 60 C-30.059618343170392 60.000336319770796, 31.704982063659216 60.00067263954159, 91.82421875 60.001 M-91.82421875 60 C-43.33499254289009 60.00026403288189, 5.1542336642198165 60.000528065763774, 91.82421875 60.001" stroke="#9370DB" stroke-width="1.3" fill="none" stroke-dasharray="0 0" style=""/></g></g><g class="node default" id="my-svg-classId-DocumentChunk-2" data-look="classic" transform="translate(112.265625, 696)"><g class="basic label-container outer-path"><path d="M-104.265625 -84 L104.265625 -84 L104.265625 84 L-104.265625 84" stroke="none" stroke-width="0" fill="#ECECFF" style=""/><path d="M-104.265625 -84 C-27.127373572930495 -84, 50.01087785413901 -84, 104.265625 -84 M-104.265625 -84 C-24.65505143016422 -84, 54.95552213967156 -84, 104.265625 -84 M104.265625 -84 C104.265625 -43.94818161326449, 104.265625 -3.896363226528976, 104.265625 84 M104.265625 -84 C104.265625 -38.690431999111894, 104.265625 6.619136001776212, 104.265625 84 M104.265625 84 C58.45905055410945 84, 12.652476108218906 84, -104.265625 84 M104.265625 84 C57.010320746625545 84, 9.755016493251091 84, -104.265625 84 M-104.265625 84 C-104.265625 20.915735706731404, -104.265625 -42.16852858653719, -104.265625 -84 M-104.265625 84 C-104.265625 45.88255709306013, -104.265625 7.7651141861202575, -104.265625 -84" stroke="#9370DB" stroke-width="1.3" fill="none" stroke-dasharray="0 0" style=""/></g><g class="annotation-group text" transform="translate(0, -60)"/><g class="label-group text" transform="translate(-64, -60)"><g class="label" style="font-weight: bolder" transform="translate(0,-12)"><foreignObject width="128" height="24"><div xmlns="http://www.w3.org/1999/xhtml" style="display: table-cell; white-space: nowrap; line-height: 1.5; max-width: 159px; text-align: center;"><span class="nodeLabel markdown-node-label" style=""><p>DocumentChunk</p></span></div></foreignObject></g></g><g class="members-group text" transform="translate(-92.265625, -12)"><g class="label" style="" transform="translate(0,-12)"><foreignObject width="65.359375" height="24"><div xmlns="http://www.w3.org/1999/xhtml" style="display: table-cell; white-space: nowrap; line-height: 1.5; max-width: 120px; text-align: center;"><span class="nodeLabel markdown-node-label" style=""><p>+UUID id</p></span></div></foreignObject></g><g class="label" style="" transform="translate(0,12)"><foreignObject width="120.53125" height="24"><div xmlns="http://www.w3.org/1999/xhtml" style="display: table-cell; white-space: nowrap; line-height: 1.5; max-width: 175px; text-align: center;"><span class="nodeLabel markdown-node-label" style=""><p>+int chunk_index</p></span></div></foreignObject></g><g class="label" style="" transform="translate(0,36)"><foreignObject width="117.84375" height="24"><div xmlns="http://www.w3.org/1999/xhtml" style="display: table-cell; white-space: nowrap; line-height: 1.5; max-width: 164px; text-align: center;"><span class="nodeLabel markdown-node-label" style=""><p>+string vector_id</p></span></div></foreignObject></g></g><g class="methods-group text" transform="translate(-92.265625, 84)"/><g class="divider" style=""><path d="M-104.265625 -36 C-46.15432028813492 -35.999721330473434, 11.956984423730162 -35.99944266094687, 104.265625 -35.999 M-104.265625 -36 C-38.70706181269139 -35.99968561756002, 26.851501374617214 -35.99937123512004, 104.265625 -35.999" stroke="#9370DB" stroke-width="1.3" fill="none" stroke-dasharray="0 0" style=""/></g><g class="divider" style=""><path d="M-104.265625 60 C-59.657136186540704 60.000213917524654, -15.048647373081408 60.00042783504931, 104.265625 60.001 M-104.265625 60 C-39.70909235646958 60.00030957725829, 24.847440287060834 60.000619154516585, 104.265625 60.001" stroke="#9370DB" stroke-width="1.3" fill="none" stroke-dasharray="0 0" style=""/></g></g><g class="node default" id="my-svg-classId-ChatSession-3" data-look="classic" transform="translate(356.140625, 406)"><g class="basic label-container outer-path"><path d="M-98.71484375 -84 L98.71484375 -84 L98.71484375 84 L-98.71484375 84" stroke="none" stroke-width="0" fill="#ECECFF" style=""/><path d="M-98.71484375 -84 C-50.354063721587735 -84, -1.9932836931754707 -84, 98.71484375 -84 M-98.71484375 -84 C-21.318404219014596 -84, 56.07803531197081 -84, 98.71484375 -84 M98.71484375 -84 C98.71484375 -33.67748402283452, 98.71484375 16.64503195433096, 98.71484375 84 M98.71484375 -84 C98.71484375 -38.81468831124888, 98.71484375 6.370623377502241, 98.71484375 84 M98.71484375 84 C38.99792614502899 84, -20.718991459942018 84, -98.71484375 84 M98.71484375 84 C32.570573953592344 84, -33.57369584281531 84, -98.71484375 84 M-98.71484375 84 C-98.71484375 48.597509387961, -98.71484375 13.195018775921994, -98.71484375 -84 M-98.71484375 84 C-98.71484375 38.7597782781001, -98.71484375 -6.4804434437998, -98.71484375 -84" stroke="#9370DB" stroke-width="1.3" fill="none" stroke-dasharray="0 0" style=""/></g><g class="annotation-group text" transform="translate(0, -60)"/><g class="label-group text" transform="translate(-48.4609375, -60)"><g class="label" style="font-weight: bolder" transform="translate(0,-12)"><foreignObject width="96.921875" height="24"><div xmlns="http://www.w3.org/1999/xhtml" style="display: table-cell; white-space: nowrap; line-height: 1.5; max-width: 129px; text-align: center;"><span class="nodeLabel markdown-node-label" style=""><p>ChatSession</p></span></div></foreignObject></g></g><g class="members-group text" transform="translate(-86.71484375, -12)"><g class="label" style="" transform="translate(0,-12)"><foreignObject width="65.359375" height="24"><div xmlns="http://www.w3.org/1999/xhtml" style="display: table-cell; white-space: nowrap; line-height: 1.5; max-width: 120px; text-align: center;"><span class="nodeLabel markdown-node-label" style=""><p>+UUID id</p></span></div></foreignObject></g><g class="label" style="" transform="translate(0,12)"><foreignObject width="77.8125" height="24"><div xmlns="http://www.w3.org/1999/xhtml" style="display: table-cell; white-space: nowrap; line-height: 1.5; max-width: 129px; text-align: center;"><span class="nodeLabel markdown-node-label" style=""><p>+string title</p></span></div></foreignObject></g><g class="label" style="" transform="translate(0,36)"><foreignObject width="124.96875" height="24"><div xmlns="http://www.w3.org/1999/xhtml" style="display: table-cell; white-space: nowrap; line-height: 1.5; max-width: 179px; text-align: center;"><span class="nodeLabel markdown-node-label" style=""><p>+bool is_archived</p></span></div></foreignObject></g></g><g class="methods-group text" transform="translate(-86.71484375, 84)"/><g class="divider" style=""><path d="M-98.71484375 -36 C-57.032249494241384 -35.99978887372622, -15.349655238482768 -35.999577747452435, 98.71484375 -35.999 M-98.71484375 -36 C-49.908240326053644 -35.999752789947436, -1.1016369021072876 -35.99950557989488, 98.71484375 -35.999" stroke="#9370DB" stroke-width="1.3" fill="none" stroke-dasharray="0 0" style=""/></g><g class="divider" style=""><path d="M-98.71484375 60 C-52.181880564412225 60.00023569385017, -5.64891737882445 60.00047138770035, 98.71484375 60.001 M-98.71484375 60 C-49.78115481365192 60.000247853752676, -0.847465877303847 60.00049570750535, 98.71484375 60.001" stroke="#9370DB" stroke-width="1.3" fill="none" stroke-dasharray="0 0" style=""/></g></g><g class="node default" id="my-svg-classId-Message-4" data-look="classic" transform="translate(356.140625, 696)"><g class="basic label-container outer-path"><path d="M-89.609375 -108 L89.609375 -108 L89.609375 108 L-89.609375 108" stroke="none" stroke-width="0" fill="#ECECFF" style=""/><path d="M-89.609375 -108 C-41.70612825283914 -108, 6.197118494321714 -108, 89.609375 -108 M-89.609375 -108 C-31.867309437439445 -108, 25.87475612512111 -108, 89.609375 -108 M89.609375 -108 C89.609375 -35.55972466836451, 89.609375 36.88055066327098, 89.609375 108 M89.609375 -108 C89.609375 -53.184921541933996, 89.609375 1.6301569161320089, 89.609375 108 M89.609375 108 C47.772143434018076 108, 5.934911868036153 108, -89.609375 108 M89.609375 108 C18.548322365134936 108, -52.51273026973013 108, -89.609375 108 M-89.609375 108 C-89.609375 23.182916235498553, -89.609375 -61.634167529002895, -89.609375 -108 M-89.609375 108 C-89.609375 53.697145207322706, -89.609375 -0.6057095853545889, -89.609375 -108" stroke="#9370DB" stroke-width="1.3" fill="none" stroke-dasharray="0 0" style=""/></g><g class="annotation-group text" transform="translate(0, -84)"/><g class="label-group text" transform="translate(-33.796875, -84)"><g class="label" style="font-weight: bolder" transform="translate(0,-12)"><foreignObject width="67.59375" height="24"><div xmlns="http://www.w3.org/1999/xhtml" style="display: table-cell; white-space: nowrap; line-height: 1.5; max-width: 106px; text-align: center;"><span class="nodeLabel markdown-node-label" style=""><p>Message</p></span></div></foreignObject></g></g><g class="members-group text" transform="translate(-77.609375, -36)"><g class="label" style="" transform="translate(0,-12)"><foreignObject width="65.359375" height="24"><div xmlns="http://www.w3.org/1999/xhtml" style="display: table-cell; white-space: nowrap; line-height: 1.5; max-width: 120px; text-align: center;"><span class="nodeLabel markdown-node-label" style=""><p>+UUID id</p></span></div></foreignObject></g><g class="label" style="" transform="translate(0,12)"><foreignObject width="79.59375" height="24"><div xmlns="http://www.w3.org/1999/xhtml" style="display: table-cell; white-space: nowrap; line-height: 1.5; max-width: 129px; text-align: center;"><span class="nodeLabel markdown-node-label" style=""><p>+string role</p></span></div></foreignObject></g><g class="label" style="" transform="translate(0,36)"><foreignObject width="92.0625" height="24"><div xmlns="http://www.w3.org/1999/xhtml" style="display: table-cell; white-space: nowrap; line-height: 1.5; max-width: 139px; text-align: center;"><span class="nodeLabel markdown-node-label" style=""><p>+text content</p></span></div></foreignObject></g><g class="label" style="" transform="translate(0,60)"><foreignObject width="121.421875" height="24"><div xmlns="http://www.w3.org/1999/xhtml" style="display: table-cell; white-space: nowrap; line-height: 1.5; max-width: 167px; text-align: center;"><span class="nodeLabel markdown-node-label" style=""><p>+float confidence</p></span></div></foreignObject></g><g class="label" style="" transform="translate(0,84)"><foreignObject width="121.421875" height="24"><div xmlns="http://www.w3.org/1999/xhtml" style="display: table-cell; white-space: nowrap; line-height: 1.5; max-width: 176px; text-align: center;"><span class="nodeLabel markdown-node-label" style=""><p>+int tokens_used</p></span></div></foreignObject></g></g><g class="methods-group text" transform="translate(-77.609375, 108)"/><g class="divider" style=""><path d="M-89.609375 -60 C-28.660385916408472 -59.99965991845673, 32.288603167183055 -59.99931983691346, 89.609375 -59.999 M-89.609375 -60 C-26.851546320316707 -59.99964982554181, 35.906282359366585 -59.99929965108361, 89.609375 -59.999" stroke="#9370DB" stroke-width="1.3" fill="none" stroke-dasharray="0 0" style=""/></g><g class="divider" style=""><path d="M-89.609375 84 C-23.246409061476086 84.00037029030689, 43.11655687704783 84.0007405806138, 89.609375 84.001 M-89.609375 84 C-23.196035569940804 84.00037057137956, 43.21730386011839 84.00074114275913, 89.609375 84.001" stroke="#9370DB" stroke-width="1.3" fill="none" stroke-dasharray="0 0" style=""/></g></g><g class="node default" id="my-svg-classId-Feedback-5" data-look="classic" transform="translate(356.140625, 962)"><g class="basic label-container outer-path"><path d="M-91.59375 -84 L91.59375 -84 L91.59375 84 L-91.59375 84" stroke="none" stroke-width="0" fill="#ECECFF" style=""/><path d="M-91.59375 -84 C-39.79977236796992 -84, 11.994205264060156 -84, 91.59375 -84 M-91.59375 -84 C-45.495787719947494 -84, 0.6021745601050128 -84, 91.59375 -84 M91.59375 -84 C91.59375 -27.67517020726207, 91.59375 28.64965958547586, 91.59375 84 M91.59375 -84 C91.59375 -26.05801585624358, 91.59375 31.883968287512843, 91.59375 84 M91.59375 84 C34.48517989158423 84, -22.623390216831538 84, -91.59375 84 M91.59375 84 C36.39821313387147 84, -18.797323732257055 84, -91.59375 84 M-91.59375 84 C-91.59375 32.45885990222615, -91.59375 -19.082280195547696, -91.59375 -84 M-91.59375 84 C-91.59375 36.07707715140646, -91.59375 -11.845845697187073, -91.59375 -84" stroke="#9370DB" stroke-width="1.3" fill="none" stroke-dasharray="0 0" style=""/></g><g class="annotation-group text" transform="translate(0, -60)"/><g class="label-group text" transform="translate(-36.90625, -60)"><g class="label" style="font-weight: bolder" transform="translate(0,-12)"><foreignObject width="73.8125" height="24"><div xmlns="http://www.w3.org/1999/xhtml" style="display: table-cell; white-space: nowrap; line-height: 1.5; max-width: 111px; text-align: center;"><span class="nodeLabel markdown-node-label" style=""><p>Feedback</p></span></div></foreignObject></g></g><g class="members-group text" transform="translate(-79.59375, -12)"><g class="label" style="" transform="translate(0,-12)"><foreignObject width="65.359375" height="24"><div xmlns="http://www.w3.org/1999/xhtml" style="display: table-cell; white-space: nowrap; line-height: 1.5; max-width: 120px; text-align: center;"><span class="nodeLabel markdown-node-label" style=""><p>+UUID id</p></span></div></foreignObject></g><g class="label" style="" transform="translate(0,12)"><foreignObject width="122.28125" height="24"><div xmlns="http://www.w3.org/1999/xhtml" style="display: table-cell; white-space: nowrap; line-height: 1.5; max-width: 167px; text-align: center;"><span class="nodeLabel markdown-node-label" style=""><p>+string sentiment</p></span></div></foreignObject></g><g class="label" style="" transform="translate(0,36)"><foreignObject width="105.375" height="24"><div xmlns="http://www.w3.org/1999/xhtml" style="display: table-cell; white-space: nowrap; line-height: 1.5; max-width: 152px; text-align: center;"><span class="nodeLabel markdown-node-label" style=""><p>+text comment</p></span></div></foreignObject></g></g><g class="methods-group text" transform="translate(-79.59375, 84)"/><g class="divider" style=""><path d="M-91.59375 -36 C-44.66879525861738 -35.99974384193932, 2.2561594827652414 -35.999487683878634, 91.59375 -35.999 M-91.59375 -36 C-53.61521030234744 -35.99979267941482, -15.636670604694885 -35.99958535882964, 91.59375 -35.999" stroke="#9370DB" stroke-width="1.3" fill="none" stroke-dasharray="0 0" style=""/></g><g class="divider" style=""><path d="M-91.59375 60 C-29.286992221890543 60.00034012559688, 33.019765556218914 60.00068025119376, 91.59375 60.001 M-91.59375 60 C-36.122279294624924 60.000302812532, 19.34919141075015 60.000605625064, 91.59375 60.001" stroke="#9370DB" stroke-width="1.3" fill="none" stroke-dasharray="0 0" style=""/></g></g></g></g></g><defs><filter id="my-svg-drop-shadow" height="130%" width="130%"><feDropShadow dx="4" dy="4" stdDeviation="0" flood-opacity="0.06" flood-color="#000000"/></filter></defs><defs><filter id="my-svg-drop-shadow-small" height="150%" width="150%"><feDropShadow dx="2" dy="2" stdDeviation="0" flood-opacity="0.06" flood-color="#000000"/></filter></defs></svg>