<svg id="my-svg" width="100%" xmlns="http://www.w3.org/2000/svg" xmlns:xlink="http://www.w3.org/1999/xlink" class="classDiagram" style="max-width: 914.617px; background-color: white;" viewBox="0 0 914.6171875 886" role="graphics-document document" aria-roledescription="class"><style>#my-svg{font-family:"trebuchet ms",verdana,arial,sans-serif;font-size:16px;fill:#333;}@keyframes edge-animation-frame{from{stroke-dashoffset:0;}}@keyframes dash{to{stroke-dashoffset:0;}}#my-svg .edge-animation-slow{stroke-dasharray:9,5!important;stroke-dashoffset:900;animation:dash 50s linear infinite;stroke-linecap:round;}#my-svg .edge-animation-fast{stroke-dasharray:9,5!important;stroke-dashoffset:900;animation:dash 20s linear infinite;stroke-linecap:round;}#my-svg .error-icon{fill:#552222;}#my-svg .error-text{fill:#552222;stroke:#552222;}#my-svg .edge-thickness-normal{stroke-width:1px;}#my-svg .edge-thickness-thick{stroke-width:3.5px;}#my-svg .edge-pattern-solid{stroke-dasharray:0;}#my-svg .edge-thickness-invisible{stroke-width:0;fill:none;}#my-svg .edge-pattern-dashed{stroke-dasharray:3;}#my-svg .edge-pattern-dotted{stroke-dasharray:2;}#my-svg .marker{fill:#333333;stroke:#333333;}#my-svg .marker.cross{stroke:#333333;}#my-svg svg{font-family:"trebuchet ms",verdana,arial,sans-serif;font-size:16px;}#my-svg p{margin:0;}#my-svg g.classGroup text{fill:#9370DB;stroke:none;font-family:"trebuchet ms",verdana,arial,sans-serif;font-size:10px;}#my-svg g.classGroup text .title{font-weight:bolder;}#my-svg .cluster-label text{fill:#333;}#my-svg .cluster-label span{color:#333;}#my-svg .cluster-label span p{background-color:transparent;}#my-svg .cluster rect{fill:#ffffde;stroke:#aaaa33;stroke-width:1px;}#my-svg .cluster text{fill:#333;}#my-svg .cluster span{color:#333;}#my-svg .nodeLabel,#my-svg .edgeLabel{color:#131300;}#my-svg .noteLabel .nodeLabel,#my-svg .noteLabel .edgeLabel{color:black;}#my-svg .edgeLabel .label rect{fill:#ECECFF;}#my-svg .label text{fill:#131300;}#my-svg .labelBkg{background:#ECECFF;}#my-svg .edgeLabel .label span{background:#ECECFF;}#my-svg .classTitle{font-weight:bolder;}#my-svg .node rect,#my-svg .node circle,#my-svg .node ellipse,#my-svg .node polygon,#my-svg .node path{fill:#ECECFF;stroke:#9370DB;stroke-width:1;}#my-svg .divider{stroke:#9370DB;stroke-width:1;}#my-svg g.clickable{cursor:pointer;}#my-svg g.classGroup rect{fill:#ECECFF;stroke:#9370DB;}#my-svg g.classGroup line{stroke:#9370DB;stroke-width:1;}#my-svg .classLabel .box{stroke:none;stroke-width:0;fill:#ECECFF;opacity:0.5;}#my-svg .classLabel .label{fill:#9370DB;font-size:10px;}#my-svg .relation{stroke:#333333;stroke-width:1;fill:none;}#my-svg .dashed-line{stroke-dasharray:3;}#my-svg .dotted-line{stroke-dasharray:1 2;}#my-svg [id$="-compositionStart"],#my-svg .composition{fill:#333333!important;stroke:#333333!important;stroke-width:1;}#my-svg [id$="-compositionEnd"],#my-svg .composition{fill:#333333!important;stroke:#333333!important;stroke-width:1;}#my-svg [id$="-dependencyStart"],#my-svg .dependency{fill:#333333!important;stroke:#333333!important;stroke-width:1;}#my-svg [id$="-dependencyEnd"],#my-svg .dependency{fill:#333333!important;stroke:#333333!important;stroke-width:1;}#my-svg [id$="-extensionStart"],#my-svg .extension{fill:transparent!important;stroke:#333333!important;stroke-width:1;}#my-svg [id$="-extensionEnd"],#my-svg .extension{fill:transparent!important;stroke:#333333!important;stroke-width:1;}#my-svg [id$="-aggregationStart"],#my-svg .aggregation{fill:transparent!important;stroke:#333333!important;stroke-width:1;}#my-svg [id$="-aggregationEnd"],#my-svg .aggregation{fill:transparent!important;stroke:#333333!important;stroke-width:1;}#my-svg [id$="-lollipopStart"],#my-svg .lollipop{fill:#ECECFF!important;stroke:#333333!important;stroke-width:1;}#my-svg [id$="-lollipopEnd"],#my-svg .lollipop{fill:#ECECFF!important;stroke:#333333!important;stroke-width:1;}#my-svg .edgeTerminals{font-size:11px;line-height:initial;}#my-svg .classTitleText{text-anchor:middle;font-size:18px;fill:#333;}#my-svg .edgeLabel[data-look="neo"]{background-color:rgba(232,232,232, 0.8);text-align:center;}#my-svg .edgeLabel[data-look="neo"] p{background-color:rgba(232,232,232, 0.8);}#my-svg .edgeLabel[data-look="neo"] rect{opacity:0.5;background-color:rgba(232,232,232, 0.8);fill:rgba(232,232,232, 0.8);}#my-svg .label-icon{display:inline-block;height:1em;overflow:visible;vertical-align:-0.125em;}#my-svg .node .label-icon path{fill:currentColor;stroke:revert;stroke-width:revert;}#my-svg .node .neo-node{stroke:#9370DB;}#my-svg [data-look="neo"].node rect,#my-svg [data-look="neo"].cluster rect,#my-svg [data-look="neo"].node polygon{stroke:#9370DB;filter:drop-shadow(1px 2px 2px rgba(185, 185, 185, 1));}#my-svg [data-look="neo"].node path{stroke:#9370DB;stroke-width:1px;}#my-svg [data-look="neo"].node .outer-path{filter:drop-shadow(1px 2px 2px rgba(185, 185, 185, 1));}#my-svg [data-look="neo"].node .neo-line path{stroke:#9370DB;filter:none;}#my-svg [data-look="neo"].node circle{stroke:#9370DB;filter:drop-shadow(1px 2px 2px rgba(185, 185, 185, 1));}#my-svg [data-look="neo"].node circle .state-start{fill:#000000;}#my-svg [data-look="neo"].icon-shape .icon{fill:#9370DB;filter:drop-shadow(1px 2px 2px rgba(185, 185, 185, 1));}#my-svg [data-look="neo"].icon-shape .icon-neo path{stroke:#9370DB;filter:drop-shadow(1px 2px 2px rgba(185, 185, 185, 1));}#my-svg :root{--mermaid-font-family:"trebuchet ms",verdana,arial,sans-serif;}</style><g><defs><marker id="my-svg_class-aggregationStart" class="marker aggregation class" refX="18" refY="7" markerWidth="190" markerHeight="240" orient="auto"><path d="M 18,7 L9,13 L1,7 L9,1 Z"/></marker></defs><defs><marker id="my-svg_class-aggregationEnd" class="marker aggregation class" refX="1" refY="7" markerWidth="20" markerHeight="28" orient="auto"><path d="M 18,7 L9,13 L1,7 L9,1 Z"/></marker></defs><defs><marker id="my-svg_class-aggregationStart-margin" class="marker aggregation class" refX="15" refY="7" markerWidth="190" markerHeight="240" orient="auto" markerUnits="userSpaceOnUse"><path d="M 18,7 L9,13 L1,7 L9,1 Z" style="stroke-width: 2;"/></marker></defs><defs><marker id="my-svg_class-aggregationEnd-margin" class="marker aggregation class" refX="1" refY="7" markerWidth="20" markerHeight="28" orient="auto" markerUnits="userSpaceOnUse"><path d="M 18,7 L9,13 L1,7 L9,1 Z" style="stroke-width: 2;"/></marker></defs><defs><marker id="my-svg_class-extensionStart" class="marker extension class" refX="18" refY="7" markerWidth="190" markerHeight="240" orient="auto" markerUnits="userSpaceOnUse"><path d="M 1,7 L18,13 V 1 Z"/></marker></defs><defs><marker id="my-svg_class-extensionEnd" class="marker extension class" refX="1" refY="7" markerWidth="20" markerHeight="28" orient="auto"><path d="M 1,1 V 13 L18,7 Z"/></marker></defs><marker id="my-svg_class-extensionStart-margin" class="marker extension class" refX="18" refY="7" markerWidth="20" markerHeight="28" orient="auto" markerUnits="userSpaceOnUse" viewBox="0 0 20 14"><polygon points="10,7 18,13 18,1" style="stroke-width: 2; stroke-dasharray: 0;"/></marker><defs><marker id="my-svg_class-extensionEnd-margin" class="marker extension class" refX="9" refY="7" markerWidth="20" markerHeight="28" orient="auto" markerUnits="userSpaceOnUse" viewBox="0 0 20 14"><polygon points="10,1 10,13 18,7" style="stroke-width: 2; stroke-dasharray: 0;"/></marker></defs><defs><marker id="my-svg_class-compositionStart" class="marker composition class" refX="18" refY="7" markerWidth="190" markerHeight="240" orient="auto"><path d="M 18,7 L9,13 L1,7 L9,1 Z"/></marker></defs><defs><marker id="my-svg_class-compositionEnd" class="marker composition class" refX="1" refY="7" markerWidth="20" markerHeight="28" orient="auto"><path d="M 18,7 L9,13 L1,7 L9,1 Z"/></marker></defs><defs><marker id="my-svg_class-compositionStart-margin" class="marker composition class" refX="15" refY="7" markerWidth="190" markerHeight="240" orient="auto" markerUnits="userSpaceOnUse"><path viewBox="0 0 15 15" d="M 18,7 L9,13 L1,7 L9,1 Z" style="stroke-width: 0;"/></marker></defs><defs><marker id="my-svg_class-compositionEnd-margin" class="marker composition class" refX="3.5" refY="7" markerWidth="20" markerHeight="28" orient="auto" markerUnits="userSpaceOnUse"><path d="M 18,7 L9,13 L1,7 L9,1 Z" style="stroke-width: 0;"/></marker></defs><defs><marker id="my-svg_class-dependencyStart" class="marker dependency class" refX="6" refY="7" markerWidth="190" markerHeight="240" orient="auto"><path d="M 5,7 L9,13 L1,7 L9,1 Z"/></marker></defs><defs><marker id="my-svg_class-dependencyEnd" class="marker dependency class" refX="13" refY="7" markerWidth="20" markerHeight="28" orient="auto"><path d="M 18,7 L9,13 L14,7 L9,1 Z"/></marker></defs><defs><marker id="my-svg_class-dependencyStart-margin" class="marker dependency class" refX="4" refY="7" markerWidth="190" markerHeight="240" orient="auto" markerUnits="userSpaceOnUse"><path d="M 5,7 L9,13 L1,7 L9,1 Z" style="stroke-width: 0;"/></marker></defs><defs><marker id="my-svg_class-dependencyEnd-margin" class="marker dependency class" refX="16" refY="7" markerWidth="20" markerHeight="28" orient="auto" markerUnits="userSpaceOnUse"><path d="M 18,7 L9,13 L14,7 L9,1 Z" style="stroke-width: 0;"/></marker></defs><defs><marker id="my-svg_class-lollipopStart" class="marker lollipop class" refX="13" refY="7" markerWidth="190" markerHeight="240" orient="auto"><circle fill="transparent" cx="7" cy="7" r="6"/></marker></defs><defs><marker id="my-svg_class-lollipopEnd" class="marker lollipop class" refX="1" refY="7" markerWidth="190" markerHeight="240" orient="auto"><circle fill="transparent" cx="7" cy="7" r="6"/></marker></defs><defs><marker id="my-svg_class-lollipopStart-margin" class="marker lollipop class" refX="13" refY="7" markerWidth="190" markerHeight="240" orient="auto" markerUnits="userSpaceOnUse"><circle fill="transparent" cx="7" cy="7" r="6" stroke-width="2"/></marker></defs><defs><marker id="my-svg_class-lollipopEnd-margin" class="marker lollipop class" refX="1" refY="7" markerWidth="190" markerHeight="240" orient="auto" markerUnits="userSpaceOnUse"><circle fill="transparent" cx="7" cy="7" r="6" stroke-width="2"/></marker></defs><g class="root"><g class="clusters"/><g class="edgePaths"><path d="M384.883,141.267L337.926,156.223C290.97,171.178,197.057,201.089,150.101,219.211C103.145,237.333,103.145,243.667,103.145,246.833L103.145,250" id="my-svg-id_FrontendApp_AuthAPI_1" class="edge-thickness-normal edge-pattern-solid relation" style=";;;" data-edge="true" data-et="edge" data-id="id_FrontendApp_AuthAPI_1" data-points="W3sieCI6Mzg0Ljg4MjgxMjUsInkiOjE0MS4yNjcwODY3Mjc5MzY3NH0seyJ4IjoxMDMuMTQ0NTMxMjUsInkiOjIzMX0seyJ4IjoxMDMuMTQ0NTMxMjUsInkiOjI1Nn1d" data-look="classic" marker-end="url(#my-svg_class-dependencyEnd)"/><path d="M384.883,204.195L379.938,208.662C374.992,213.13,365.102,222.065,360.156,231.699C355.211,241.333,355.211,251.667,355.211,256.833L355.211,262" id="my-svg-id_FrontendApp_DocumentAPI_2" class="edge-thickness-normal edge-pattern-solid relation" style=";;;" data-edge="true" data-et="edge" data-id="id_FrontendApp_DocumentAPI_2" data-points="W3sieCI6Mzg0Ljg4MjgxMjUsInkiOjIwNC4xOTQ5MTE2MzY2NDMwNH0seyJ4IjozNTUuMjEwOTM3NSwieSI6MjMxfSx7IngiOjM1NS4yMTA5Mzc1LCJ5IjoyNjh9XQ==" data-look="classic" marker-end="url(#my-svg_class-dependencyEnd)"/><path d="M600.063,153.026L630.441,166.021C660.82,179.017,721.578,205.009,751.957,238.671C782.336,272.333,782.336,313.667,782.336,355C782.336,396.333,782.336,437.667,782.336,461.5C782.336,485.333,782.336,491.667,782.336,494.833L782.336,498" id="my-svg-id_FrontendApp_ChatAPI_3" class="edge-thickness-normal edge-pattern-solid relation" style=";;;" data-edge="true" data-et="edge" data-id="id_FrontendApp_ChatAPI_3" data-points="W3sieCI6NjAwLjA2MjUsInkiOjE1My4wMjU2MzE2OTU5NzczNX0seyJ4Ijo3ODIuMzM1OTM3NSwieSI6MjMxfSx7IngiOjc4Mi4zMzU5Mzc1LCJ5IjozNTV9LHsieCI6NzgyLjMzNTkzNzUsInkiOjQ3OX0seyJ4Ijo3ODIuMzM1OTM3NSwieSI6NTA0fV0=" data-look="classic" marker-end="url(#my-svg_class-dependencyEnd)"/><path d="M600.063,204.195L605.008,208.662C609.953,213.13,619.844,222.065,624.789,229.699C629.734,237.333,629.734,243.667,629.734,246.833L629.734,250" id="my-svg-id_FrontendApp_AnalyticsAPI_4" class="edge-thickness-normal edge-pattern-solid relation" style=";;;" data-edge="true" data-et="edge" data-id="id_FrontendApp_AnalyticsAPI_4" data-points="W3sieCI6NjAwLjA2MjUsInkiOjIwNC4xOTQ5MTE2MzY2NDMwNH0seyJ4Ijo2MjkuNzM0Mzc1LCJ5IjoyMzF9LHsieCI6NjI5LjczNDM3NSwieSI6MjU2fV0=" data-look="classic" marker-end="url(#my-svg_class-dependencyEnd)"/><path d="M355.211,442L355.211,448.167C355.211,454.333,355.211,466.667,355.211,478C355.211,489.333,355.211,499.667,355.211,504.833L355.211,510" id="my-svg-id_DocumentAPI_WorkerService_5" class="edge-thickness-normal edge-pattern-solid relation" style=";;;" data-edge="true" data-et="edge" data-id="id_DocumentAPI_WorkerService_5" data-points="W3sieCI6MzU1LjIxMDkzNzUsInkiOjQ0Mn0seyJ4IjozNTUuMjEwOTM3NSwieSI6NDc5fSx7IngiOjM1NS4yMTA5Mzc1LCJ5Ijo1MTZ9XQ==" data-look="classic" marker-end="url(#my-svg_class-dependencyEnd)"/><path d="M341.818,666L340.717,672.167C339.616,678.333,337.413,690.667,336.629,700.005C335.845,709.343,336.48,715.687,336.797,718.858L337.114,722.03" id="my-svg-id_WorkerService_VectorStore_6" class="edge-thickness-normal edge-pattern-solid relation" style=";;;" data-edge="true" data-et="edge" data-id="id_WorkerService_VectorStore_6" data-points="W3sieCI6MzQxLjgxODA4MDM1NzE0MjgzLCJ5Ijo2NjZ9LHsieCI6MzM1LjIxMDkzNzUsInkiOjcwM30seyJ4IjozMzcuNzEwOTM3NSwieSI6NzI4fV0=" data-look="classic" marker-end="url(#my-svg_class-dependencyEnd)"/><path d="M469.633,648.323L487.823,657.436C506.013,666.549,542.393,684.774,576.225,701.211C610.056,717.648,641.338,732.296,656.98,739.62L672.621,746.944" id="my-svg-id_WorkerService_LLMGateway_7" class="edge-thickness-normal edge-pattern-solid relation" style=";;;" data-edge="true" data-et="edge" data-id="id_WorkerService_LLMGateway_7" data-points="W3sieCI6NDY5LjYzMjgxMjUsInkiOjY0OC4zMjI4OTYyODE4MDA0fSx7IngiOjU3OC43NzM0Mzc1LCJ5Ijo3MDN9LHsieCI6Njc4LjA1NDY4NzUsInkiOjc0OS40ODgxNDc0OTc4MDUxfV0=" data-look="classic" marker-end="url(#my-svg_class-dependencyEnd)"/><path d="M694.082,635.213L671.531,646.511C648.979,657.809,603.876,680.404,562.198,700.658C520.52,720.912,482.266,738.824,463.139,747.781L444.012,756.737" id="my-svg-id_ChatAPI_VectorStore_8" class="edge-thickness-normal edge-pattern-solid relation" style=";;;" data-edge="true" data-et="edge" data-id="id_ChatAPI_VectorStore_8" data-points="W3sieCI6Njk0LjA4MjAzMTI1LCJ5Ijo2MzUuMjEzMzA3MjQwNzA0NX0seyJ4Ijo1NTguNzczNDM3NSwieSI6NzAzfSx7IngiOjQzOC41NzgxMjUsInkiOjc1OS4yODEwOTQ1MjczNjMyfV0=" data-look="classic" marker-end="url(#my-svg_class-dependencyEnd)"/><path d="M797.872,678L798.616,682.167C799.36,686.333,800.848,694.667,801.275,702.005C801.702,709.343,801.067,715.687,800.75,718.858L800.433,722.03" id="my-svg-id_ChatAPI_LLMGateway_9" class="edge-thickness-normal edge-pattern-solid relation" style=";;;" data-edge="true" data-et="edge" data-id="id_ChatAPI_LLMGateway_9" data-points="W3sieCI6Nzk3Ljg3MTY1MTc4NTcxNDMsInkiOjY3OH0seyJ4Ijo4MDIuMzM1OTM3NSwieSI6NzAzfSx7IngiOjc5OS44MzU5Mzc1LCJ5Ijo3Mjh9XQ==" data-look="classic" marker-end="url(#my-svg_class-dependencyEnd)"/></g><g class="edgeLabels"><g class="edgeLabel"><g class="label" data-id="id_FrontendApp_AuthAPI_1" transform="translate(0, 0)"><foreignObject width="0" height="0"><div xmlns="http://www.w3.org/1999/xhtml" class="labelBkg" style="display: table-cell; white-space: nowrap; line-height: 1.5; max-width: 200px; text-align: center;"><span class="edgeLabel"></span></div></foreignObject></g></g><g class="edgeLabel"><g class="label" data-id="id_FrontendApp_DocumentAPI_2" transform="translate(0, 0)"><foreignObject width="0" height="0"><div xmlns="http://www.w3.org/1999/xhtml" class="labelBkg" style="display: table-cell; white-space: nowrap; line-height: 1.5; max-width: 200px; text-align: center;"><span class="edgeLabel"></span></div></foreignObject></g></g><g class="edgeLabel"><g class="label" data-id="id_FrontendApp_ChatAPI_3" transform="translate(0, 0)"><foreignObject width="0" height="0"><div xmlns="http://www.w3.org/1999/xhtml" class="labelBkg" style="display: table-cell; white-space: nowrap; line-height: 1.5; max-width: 200px; text-align: center;"><span class="edgeLabel"></span></div></foreignObject></g></g><g class="edgeLabel"><g class="label" data-id="id_FrontendApp_AnalyticsAPI_4" transform="translate(0, 0)"><foreignObject width="0" height="0"><div xmlns="http://www.w3.org/1999/xhtml" class="labelBkg" style="display: table-cell; white-space: nowrap; line-height: 1.5; max-width: 200px; text-align: center;"><span class="edgeLabel"></span></div></foreignObject></g></g><g class="edgeLabel"><g class="label" data-id="id_DocumentAPI_WorkerService_5" transform="translate(0, 0)"><foreignObject width="0" height="0"><div xmlns="http://www.w3.org/1999/xhtml" class="labelBkg" style="display: table-cell; white-space: nowrap; line-height: 1.5; max-width: 200px; text-align: center;"><span class="edgeLabel"></span></div></foreignObject></g></g><g class="edgeLabel"><g class="label" data-id="id_WorkerService_VectorStore_6" transform="translate(0, 0)"><foreignObject width="0" height="0"><div xmlns="http://www.w3.org/1999/xhtml" class="labelBkg" style="display: table-cell; white-space: nowrap; line-height: 1.5; max-width: 200px; text-align: center;"><span class="edgeLabel"></span></div></foreignObject></g></g><g class="edgeLabel"><g class="label" data-id="id_WorkerService_LLMGateway_7" transform="translate(0, 0)"><foreignObject width="0" height="0"><div xmlns="http://www.w3.org/1999/xhtml" class="labelBkg" style="display: table-cell; white-space: nowrap; line-height: 1.5; max-width: 200px; text-align: center;"><span class="edgeLabel"></span></div></foreignObject></g></g><g class="edgeLabel"><g class="label" data-id="id_ChatAPI_VectorStore_8" transform="translate(0, 0)"><foreignObject width="0" height="0"><div xmlns="http://www.w3.org/1999/xhtml" class="labelBkg" style="display: table-cell; white-space: nowrap; line-height: 1.5; max-width: 200px; text-align: center;"><span class="edgeLabel"></span></div></foreignObject></g></g><g class="edgeLabel"><g class="label" data-id="id_ChatAPI_LLMGateway_9" transform="translate(0, 0)"><foreignObject width="0" height="0"><div xmlns="http://www.w3.org/1999/xhtml" class="labelBkg" style="display: table-cell; white-space: nowrap; line-height: 1.5; max-width: 200px; text-align: center;"><span class="edgeLabel"></span></div></foreignObject></g></g></g><g class="nodes"><g class="node default" id="my-svg-classId-FrontendApp-0" data-look="classic" transform="translate(492.47265625, 107)"><g class="basic label-container outer-path"><path d="M-107.58984375 -99 L107.58984375 -99 L107.58984375 99 L-107.58984375 99" stroke="none" stroke-width="0" fill="#ECECFF" style=""/><path d="M-107.58984375 -99 C-58.40797263691704 -99, -9.226101523834075 -99, 107.58984375 -99 M-107.58984375 -99 C-61.87357033244426 -99, -16.15729691488852 -99, 107.58984375 -99 M107.58984375 -99 C107.58984375 -54.81242027957105, 107.58984375 -10.6248405591421, 107.58984375 99 M107.58984375 -99 C107.58984375 -23.79954654365511, 107.58984375 51.40090691268978, 107.58984375 99 M107.58984375 99 C38.878450199839236 99, -29.83294335032153 99, -107.58984375 99 M107.58984375 99 C61.92095593328782 99, 16.252068116575643 99, -107.58984375 99 M-107.58984375 99 C-107.58984375 40.447254668392425, -107.58984375 -18.10549066321515, -107.58984375 -99 M-107.58984375 99 C-107.58984375 52.62731380164129, -107.58984375 6.254627603282586, -107.58984375 -99" stroke="#9370DB" stroke-width="1.3" fill="none" stroke-dasharray="0 0" style=""/></g><g class="annotation-group text" transform="translate(0, -75)"/><g class="label-group text" transform="translate(-50.2109375, -75)"><g class="label" style="font-weight: bolder" transform="translate(0,-12)"><foreignObject width="100.421875" height="24"><div xmlns="http://www.w3.org/1999/xhtml" style="display: table-cell; white-space: nowrap; line-height: 1.5; max-width: 135px; text-align: center;"><span class="nodeLabel markdown-node-label" style=""><p>FrontendApp</p></span></div></foreignObject></g></g><g class="members-group text" transform="translate(-95.58984375, -27)"/><g class="methods-group text" transform="translate(-95.58984375, 3)"><g class="label" style="" transform="translate(0,-12)"><foreignObject width="53.8125" height="24"><div xmlns="http://www.w3.org/1999/xhtml" style="display: table-cell; white-space: nowrap; line-height: 1.5; max-width: 107px; text-align: center;"><span class="nodeLabel markdown-node-label" style=""><p>+login()</p></span></div></foreignObject></g><g class="label" style="" transform="translate(0,12)"><foreignObject width="140.96875" height="24"><div xmlns="http://www.w3.org/1999/xhtml" style="display: table-cell; white-space: nowrap; line-height: 1.5; max-width: 184px; text-align: center;"><span class="nodeLabel markdown-node-label" style=""><p>+uploadDocument()</p></span></div></foreignObject></g><g class="label" style="" transform="translate(0,36)"><foreignObject width="108.9375" height="24"><div xmlns="http://www.w3.org/1999/xhtml" style="display: table-cell; white-space: nowrap; line-height: 1.5; max-width: 153px; text-align: center;"><span class="nodeLabel markdown-node-label" style=""><p>+askQuestion()</p></span></div></foreignObject></g><g class="label" style="" transform="translate(0,60)"><foreignObject width="130.28125" height="24"><div xmlns="http://www.w3.org/1999/xhtml" style="display: table-cell; white-space: nowrap; line-height: 1.5; max-width: 175px; text-align: center;"><span class="nodeLabel markdown-node-label" style=""><p>+viewDashboard()</p></span></div></foreignObject></g></g><g class="divider" style=""><path d="M-107.58984375 -51 C-48.09875726676445 -50.999723528334975, 11.392329216471097 -50.99944705666994, 107.58984375 -50.999 M-107.58984375 -51 C-46.3234386801326 -50.99971527793454, 14.942966389734806 -50.99943055586908, 107.58984375 -50.999" stroke="#9370DB" stroke-width="1.3" fill="none" stroke-dasharray="0 0" style=""/></g><g class="divider" style=""><path d="M-107.58984375 -27 C-33.84587753263531 -26.999657291229138, 39.89808868472937 -26.99931458245828, 107.58984375 -26.999 M-107.58984375 -27 C-58.9807575974706 -26.999774100024414, -10.3716714449412 -26.99954820004883, 107.58984375 -26.999" stroke="#9370DB" stroke-width="1.3" fill="none" stroke-dasharray="0 0" style=""/></g></g><g class="node default" id="my-svg-classId-AuthAPI-1" data-look="classic" transform="translate(103.14453125, 355)"><g class="basic label-container outer-path"><path d="M-95.14453125 -99 L95.14453125 -99 L95.14453125 99 L-95.14453125 99" stroke="none" stroke-width="0" fill="#ECECFF" style=""/><path d="M-95.14453125 -99 C-46.45555278776098 -99, 2.233425674478042 -99, 95.14453125 -99 M-95.14453125 -99 C-19.252708440930576 -99, 56.63911436813885 -99, 95.14453125 -99 M95.14453125 -99 C95.14453125 -29.601361176792736, 95.14453125 39.79727764641453, 95.14453125 99 M95.14453125 -99 C95.14453125 -21.293741819387648, 95.14453125 56.412516361224704, 95.14453125 99 M95.14453125 99 C38.83731511927229 99, -17.46990101145542 99, -95.14453125 99 M95.14453125 99 C54.872363664237355 99, 14.60019607847471 99, -95.14453125 99 M-95.14453125 99 C-95.14453125 40.973652304431404, -95.14453125 -17.052695391137192, -95.14453125 -99 M-95.14453125 99 C-95.14453125 37.164527505016004, -95.14453125 -24.670944989967992, -95.14453125 -99" stroke="#9370DB" stroke-width="1.3" fill="none" stroke-dasharray="0 0" style=""/></g><g class="annotation-group text" transform="translate(0, -75)"/><g class="label-group text" transform="translate(-31.5546875, -75)"><g class="label" style="font-weight: bolder" transform="translate(0,-12)"><foreignObject width="63.109375" height="24"><div xmlns="http://www.w3.org/1999/xhtml" style="display: table-cell; white-space: nowrap; line-height: 1.5; max-width: 108px; text-align: center;"><span class="nodeLabel markdown-node-label" style=""><p>AuthAPI</p></span></div></foreignObject></g></g><g class="members-group text" transform="translate(-83.14453125, -27)"/><g class="methods-group text" transform="translate(-83.14453125, 3)"><g class="label" style="" transform="translate(0,-12)"><foreignObject width="73.359375" height="24"><div xmlns="http://www.w3.org/1999/xhtml" style="display: table-cell; white-space: nowrap; line-height: 1.5; max-width: 122px; text-align: center;"><span class="nodeLabel markdown-node-label" style=""><p>+register()</p></span></div></foreignObject></g><g class="label" style="" transform="translate(0,12)"><foreignObject width="134.734375" height="24"><div xmlns="http://www.w3.org/1999/xhtml" style="display: table-cell; white-space: nowrap; line-height: 1.5; max-width: 179px; text-align: center;"><span class="nodeLabel markdown-node-label" style=""><p>+tokenObtainPair()</p></span></div></foreignObject></g><g class="label" style="" transform="translate(0,36)"><foreignObject width="107.203125" height="24"><div xmlns="http://www.w3.org/1999/xhtml" style="display: table-cell; white-space: nowrap; line-height: 1.5; max-width: 156px; text-align: center;"><span class="nodeLabel markdown-node-label" style=""><p>+googleLogin()</p></span></div></foreignObject></g><g class="label" style="" transform="translate(0,60)"><foreignObject width="112.5" height="24"><div xmlns="http://www.w3.org/1999/xhtml" style="display: table-cell; white-space: nowrap; line-height: 1.5; max-width: 158px; text-align: center;"><span class="nodeLabel markdown-node-label" style=""><p>+refreshToken()</p></span></div></foreignObject></g></g><g class="divider" style=""><path d="M-95.14453125 -51 C-29.96753163590843 -50.99965748425707, 35.20946797818314 -50.999314968514135, 95.14453125 -50.999 M-95.14453125 -51 C-56.98553562790133 -50.999799468266225, -18.826540005802656 -50.99959893653244, 95.14453125 -50.999" stroke="#9370DB" stroke-width="1.3" fill="none" stroke-dasharray="0 0" style=""/></g><g class="divider" style=""><path d="M-95.14453125 -27 C-42.81589563920769 -26.99972500450145, 9.512739971584622 -26.9994500090029, 95.14453125 -26.999 M-95.14453125 -27 C-51.28057530871289 -26.99976948777105, -7.416619367425781 -26.999538975542105, 95.14453125 -26.999" stroke="#9370DB" stroke-width="1.3" fill="none" stroke-dasharray="0 0" style=""/></g></g><g class="node default" id="my-svg-classId-DocumentAPI-2" data-look="classic" transform="translate(355.2109375, 355)"><g class="basic label-container outer-path"><path d="M-106.921875 -87 L106.921875 -87 L106.921875 87 L-106.921875 87" stroke="none" stroke-width="0" fill="#ECECFF" style=""/><path d="M-106.921875 -87 C-28.1377092695747 -87, 50.6464564608506 -87, 106.921875 -87 M-106.921875 -87 C-39.805687665652044 -87, 27.31049966869591 -87, 106.921875 -87 M106.921875 -87 C106.921875 -32.55236448125197, 106.921875 21.89527103749606, 106.921875 87 M106.921875 -87 C106.921875 -19.564331450194274, 106.921875 47.87133709961145, 106.921875 87 M106.921875 87 C58.78811549310921 87, 10.65435598621842 87, -106.921875 87 M106.921875 87 C38.59962606912073 87, -29.722622861758538 87, -106.921875 87 M-106.921875 87 C-106.921875 50.17467051633426, -106.921875 13.34934103266852, -106.921875 -87 M-106.921875 87 C-106.921875 23.40103641834679, -106.921875 -40.19792716330642, -106.921875 -87" stroke="#9370DB" stroke-width="1.3" fill="none" stroke-dasharray="0 0" style=""/></g><g class="annotation-group text" transform="translate(0, -63)"/><g class="label-group text" transform="translate(-52.453125, -63)"><g class="label" style="font-weight: bolder" transform="translate(0,-12)"><foreignObject width="104.90625" height="24"><div xmlns="http://www.w3.org/1999/xhtml" style="display: table-cell; white-space: nowrap; line-height: 1.5; max-width: 142px; text-align: center;"><span class="nodeLabel markdown-node-label" style=""><p>DocumentAPI</p></span></div></foreignObject></g></g><g class="members-group text" transform="translate(-94.921875, -15)"/><g class="methods-group text" transform="translate(-94.921875, 15)"><g class="label" style="" transform="translate(0,-12)"><foreignObject width="137.390625" height="24"><div xmlns="http://www.w3.org/1999/xhtml" style="display: table-cell; white-space: nowrap; line-height: 1.5; max-width: 179px; text-align: center;"><span class="nodeLabel markdown-node-label" style=""><p>+createDocument()</p></span></div></foreignObject></g><g class="label" style="" transform="translate(0,12)"><foreignObject width="120.484375" height="24"><div xmlns="http://www.w3.org/1999/xhtml" style="display: table-cell; white-space: nowrap; line-height: 1.5; max-width: 167px; text-align: center;"><span class="nodeLabel markdown-node-label" style=""><p>+listDocuments()</p></span></div></foreignObject></g><g class="label" style="" transform="translate(0,36)"><foreignObject width="136.515625" height="24"><div xmlns="http://www.w3.org/1999/xhtml" style="display: table-cell; white-space: nowrap; line-height: 1.5; max-width: 179px; text-align: center;"><span class="nodeLabel markdown-node-label" style=""><p>+deleteDocument()</p></span></div></foreignObject></g></g><g class="divider" style=""><path d="M-106.921875 -39 C-49.09824102745703 -38.999729598672054, 8.725392945085943 -38.999459197344116, 106.921875 -38.999 M-106.921875 -39 C-52.53892448665195 -38.99974568837989, 1.844026026696099 -38.99949137675978, 106.921875 -38.999" stroke="#9370DB" stroke-width="1.3" fill="none" stroke-dasharray="0 0" style=""/></g><g class="divider" style=""><path d="M-106.921875 -15 C-63.86889780879412 -14.9997986708651, -20.815920617588233 -14.999597341730201, 106.921875 -14.999 M-106.921875 -15 C-61.43860897536285 -14.999787306077335, -15.955342950725694 -14.999574612154673, 106.921875 -14.999" stroke="#9370DB" stroke-width="1.3" fill="none" stroke-dasharray="0 0" style=""/></g></g><g class="node default" id="my-svg-classId-ChatAPI-3" data-look="classic" transform="translate(782.3359375, 591)"><g class="basic label-container outer-path"><path d="M-88.25390625 -87 L88.25390625 -87 L88.25390625 87 L-88.25390625 87" stroke="none" stroke-width="0" fill="#ECECFF" style=""/><path d="M-88.25390625 -87 C-41.245623961829374 -87, 5.762658326341253 -87, 88.25390625 -87 M-88.25390625 -87 C-22.35065311501772 -87, 43.55260001996456 -87, 88.25390625 -87 M88.25390625 -87 C88.25390625 -36.867801964555746, 88.25390625 13.264396070888509, 88.25390625 87 M88.25390625 -87 C88.25390625 -42.406914965859414, 88.25390625 2.1861700682811716, 88.25390625 87 M88.25390625 87 C40.155120727929216 87, -7.943664794141569 87, -88.25390625 87 M88.25390625 87 C21.610135379229618 87, -45.033635491540764 87, -88.25390625 87 M-88.25390625 87 C-88.25390625 50.515880142389015, -88.25390625 14.03176028477803, -88.25390625 -87 M-88.25390625 87 C-88.25390625 50.33902046582512, -88.25390625 13.678040931650244, -88.25390625 -87" stroke="#9370DB" stroke-width="1.3" fill="none" stroke-dasharray="0 0" style=""/></g><g class="annotation-group text" transform="translate(0, -63)"/><g class="label-group text" transform="translate(-31.1171875, -63)"><g class="label" style="font-weight: bolder" transform="translate(0,-12)"><foreignObject width="62.234375" height="24"><div xmlns="http://www.w3.org/1999/xhtml" style="display: table-cell; white-space: nowrap; line-height: 1.5; max-width: 106px; text-align: center;"><span class="nodeLabel markdown-node-label" style=""><p>ChatAPI</p></span></div></foreignObject></g></g><g class="members-group text" transform="translate(-76.25390625, -15)"/><g class="methods-group text" transform="translate(-76.25390625, 15)"><g class="label" style="" transform="translate(0,-12)"><foreignObject width="121.390625" height="24"><div xmlns="http://www.w3.org/1999/xhtml" style="display: table-cell; white-space: nowrap; line-height: 1.5; max-width: 161px; text-align: center;"><span class="nodeLabel markdown-node-label" style=""><p>+createSession()</p></span></div></foreignObject></g><g class="label" style="" transform="translate(0,12)"><foreignObject width="119.625" height="24"><div xmlns="http://www.w3.org/1999/xhtml" style="display: table-cell; white-space: nowrap; line-height: 1.5; max-width: 159px; text-align: center;"><span class="nodeLabel markdown-node-label" style=""><p>+sendMessage()</p></span></div></foreignObject></g><g class="label" style="" transform="translate(0,36)"><foreignObject width="89.34375" height="24"><div xmlns="http://www.w3.org/1999/xhtml" style="display: table-cell; white-space: nowrap; line-height: 1.5; max-width: 142px; text-align: center;"><span class="nodeLabel markdown-node-label" style=""><p>+listHistory()</p></span></div></foreignObject></g></g><g class="divider" style=""><path d="M-88.25390625 -39 C-32.587381959561604 -38.999684622887216, 23.079142330876792 -38.99936924577443, 88.25390625 -38.999 M-88.25390625 -39 C-22.627399962780828 -38.99962819489201, 42.999106324438344 -38.99925638978403, 88.25390625 -38.999" stroke="#9370DB" stroke-width="1.3" fill="none" stroke-dasharray="0 0" style=""/></g><g class="divider" style=""><path d="M-88.25390625 -15 C-28.98147069646845 -14.999664193699338, 30.290964857063102 -14.999328387398677, 88.25390625 -14.999 M-88.25390625 -15 C-48.594963120028126 -14.999775313383763, -8.936019990056252 -14.999550626767526, 88.25390625 -14.999" stroke="#9370DB" stroke-width="1.3" fill="none" stroke-dasharray="0 0" style=""/></g></g><g class="node default" id="my-svg-classId-AnalyticsAPI-4" data-look="classic" transform="translate(629.734375, 355)"><g class="basic label-container outer-path"><path d="M-117.6015625 -99 L117.6015625 -99 L117.6015625 99 L-117.6015625 99" stroke="none" stroke-width="0" fill="#ECECFF" style=""/><path d="M-117.6015625 -99 C-28.472447922774393 -99, 60.656666654451215 -99, 117.6015625 -99 M-117.6015625 -99 C-51.049264377299 -99, 15.503033745402007 -99, 117.6015625 -99 M117.6015625 -99 C117.6015625 -37.9708054171041, 117.6015625 23.058389165791795, 117.6015625 99 M117.6015625 -99 C117.6015625 -42.79615318531641, 117.6015625 13.407693629367174, 117.6015625 99 M117.6015625 99 C47.8485903969199 99, -21.904381706160194 99, -117.6015625 99 M117.6015625 99 C68.0070477663132 99, 18.412533032626413 99, -117.6015625 99 M-117.6015625 99 C-117.6015625 38.085357389111955, -117.6015625 -22.82928522177609, -117.6015625 -99 M-117.6015625 99 C-117.6015625 54.93253295263473, -117.6015625 10.86506590526946, -117.6015625 -99" stroke="#9370DB" stroke-width="1.3" fill="none" stroke-dasharray="0 0" style=""/></g><g class="annotation-group text" transform="translate(0, -75)"/><g class="label-group text" transform="translate(-48.90625, -75)"><g class="label" style="font-weight: bolder" transform="translate(0,-12)"><foreignObject width="97.8125" height="24"><div xmlns="http://www.w3.org/1999/xhtml" style="display: table-cell; white-space: nowrap; line-height: 1.5; max-width: 137px; text-align: center;"><span class="nodeLabel markdown-node-label" style=""><p>AnalyticsAPI</p></span></div></foreignObject></g></g><g class="members-group text" transform="translate(-105.6015625, -27)"/><g class="methods-group text" transform="translate(-105.6015625, 3)"><g class="label" style="" transform="translate(0,-12)"><foreignObject width="162.296875" height="24"><div xmlns="http://www.w3.org/1999/xhtml" style="display: table-cell; white-space: nowrap; line-height: 1.5; max-width: 203px; text-align: center;"><span class="nodeLabel markdown-node-label" style=""><p>+dashboardOverview()</p></span></div></foreignObject></g><g class="label" style="" transform="translate(0,12)"><foreignObject width="123.46875" height="24"><div xmlns="http://www.w3.org/1999/xhtml" style="display: table-cell; white-space: nowrap; line-height: 1.5; max-width: 168px; text-align: center;"><span class="nodeLabel markdown-node-label" style=""><p>+usageTimeline()</p></span></div></foreignObject></g><g class="label" style="" transform="translate(0,36)"><foreignObject width="124.046875" height="24"><div xmlns="http://www.w3.org/1999/xhtml" style="display: table-cell; white-space: nowrap; line-height: 1.5; max-width: 172px; text-align: center;"><span class="nodeLabel markdown-node-label" style=""><p>+queryAnalytics()</p></span></div></foreignObject></g><g class="label" style="" transform="translate(0,60)"><foreignObject width="81.34375" height="24"><div xmlns="http://www.w3.org/1999/xhtml" style="display: table-cell; white-space: nowrap; line-height: 1.5; max-width: 130px; text-align: center;"><span class="nodeLabel markdown-node-label" style=""><p>+listUsers()</p></span></div></foreignObject></g></g><g class="divider" style=""><path d="M-117.6015625 -51 C-67.85701746138025 -50.999788503894074, -18.11247242276049 -50.999577007788155, 117.6015625 -50.999 M-117.6015625 -51 C-40.460157488479666 -50.999672022193536, 36.68124752304067 -50.999344044387065, 117.6015625 -50.999" stroke="#9370DB" stroke-width="1.3" fill="none" stroke-dasharray="0 0" style=""/></g><g class="divider" style=""><path d="M-117.6015625 -27 C-57.777816272424744 -26.999745650716896, 2.0459299551505126 -26.999491301433793, 117.6015625 -26.999 M-117.6015625 -27 C-42.31875792755167 -26.999679924301294, 32.964046644896655 -26.999359848602584, 117.6015625 -26.999" stroke="#9370DB" stroke-width="1.3" fill="none" stroke-dasharray="0 0" style=""/></g></g><g class="node default" id="my-svg-classId-WorkerService-5" data-look="classic" transform="translate(355.2109375, 591)"><g class="basic label-container outer-path"><path d="M-114.421875 -75 L114.421875 -75 L114.421875 75 L-114.421875 75" stroke="none" stroke-width="0" fill="#ECECFF" style=""/><path d="M-114.421875 -75 C-24.565902405188822 -75, 65.29007018962236 -75, 114.421875 -75 M-114.421875 -75 C-28.20506175920538 -75, 58.01175148158924 -75, 114.421875 -75 M114.421875 -75 C114.421875 -29.210583392801098, 114.421875 16.578833214397804, 114.421875 75 M114.421875 -75 C114.421875 -25.085902024267938, 114.421875 24.828195951464124, 114.421875 75 M114.421875 75 C33.9951191896902 75, -46.4316366206196 75, -114.421875 75 M114.421875 75 C50.323898452987194 75, -13.774078094025612 75, -114.421875 75 M-114.421875 75 C-114.421875 42.656914454731805, -114.421875 10.31382890946361, -114.421875 -75 M-114.421875 75 C-114.421875 33.96227545129246, -114.421875 -7.075449097415074, -114.421875 -75" stroke="#9370DB" stroke-width="1.3" fill="none" stroke-dasharray="0 0" style=""/></g><g class="annotation-group text" transform="translate(0, -51)"/><g class="label-group text" transform="translate(-55.890625, -51)"><g class="label" style="font-weight: bolder" transform="translate(0,-12)"><foreignObject width="111.78125" height="24"><div xmlns="http://www.w3.org/1999/xhtml" style="display: table-cell; white-space: nowrap; line-height: 1.5; max-width: 146px; text-align: center;"><span class="nodeLabel markdown-node-label" style=""><p>WorkerService</p></span></div></foreignObject></g></g><g class="members-group text" transform="translate(-102.421875, -3)"/><g class="methods-group text" transform="translate(-102.421875, 27)"><g class="label" style="" transform="translate(0,-12)"><foreignObject width="148.953125" height="24"><div xmlns="http://www.w3.org/1999/xhtml" style="display: table-cell; white-space: nowrap; line-height: 1.5; max-width: 189px; text-align: center;"><span class="nodeLabel markdown-node-label" style=""><p>+processDocument()</p></span></div></foreignObject></g><g class="label" style="" transform="translate(0,12)"><foreignObject width="142.75" height="24"><div xmlns="http://www.w3.org/1999/xhtml" style="display: table-cell; white-space: nowrap; line-height: 1.5; max-width: 187px; text-align: center;"><span class="nodeLabel markdown-node-label" style=""><p>+buildEmbeddings()</p></span></div></foreignObject></g></g><g class="divider" style=""><path d="M-114.421875 -27 C-31.851777776617894 -26.999639185701056, 50.71831944676421 -26.999278371402117, 114.421875 -26.999 M-114.421875 -27 C-57.928189951905495 -26.999753134245317, -1.4345049038109892 -26.999506268490634, 114.421875 -26.999" stroke="#9370DB" stroke-width="1.3" fill="none" stroke-dasharray="0 0" style=""/></g><g class="divider" style=""><path d="M-114.421875 -3 C-24.487107888578947 -2.99960700361224, 65.4476592228421 -2.9992140072244804, 114.421875 -2.999 M-114.421875 -3 C-55.60063986624223 -2.9997429633313835, 3.2205952675155345 -2.9994859266627665, 114.421875 -2.999" stroke="#9370DB" stroke-width="1.3" fill="none" stroke-dasharray="0 0" style=""/></g></g><g class="node default" id="my-svg-classId-VectorStore-6" data-look="classic" transform="translate(345.2109375, 803)"><g class="basic label-container outer-path"><path d="M-93.3671875 -75 L93.3671875 -75 L93.3671875 75 L-93.3671875 75" stroke="none" stroke-width="0" fill="#ECECFF" style=""/><path d="M-93.3671875 -75 C-37.39662258694899 -75, 18.573942326102014 -75, 93.3671875 -75 M-93.3671875 -75 C-34.370974835733946 -75, 24.625237828532107 -75, 93.3671875 -75 M93.3671875 -75 C93.3671875 -33.13099953073768, 93.3671875 8.738000938524635, 93.3671875 75 M93.3671875 -75 C93.3671875 -21.63009135448158, 93.3671875 31.739817291036843, 93.3671875 75 M93.3671875 75 C46.42157299779926 75, -0.524041504401481 75, -93.3671875 75 M93.3671875 75 C55.54604611999652 75, 17.724904739993036 75, -93.3671875 75 M-93.3671875 75 C-93.3671875 24.760124976043592, -93.3671875 -25.479750047912816, -93.3671875 -75 M-93.3671875 75 C-93.3671875 42.27400288088628, -93.3671875 9.548005761772558, -93.3671875 -75" stroke="#9370DB" stroke-width="1.3" fill="none" stroke-dasharray="0 0" style=""/></g><g class="annotation-group text" transform="translate(0, -51)"/><g class="label-group text" transform="translate(-44.90625, -51)"><g class="label" style="font-weight: bolder" transform="translate(0,-12)"><foreignObject width="89.8125" height="24"><div xmlns="http://www.w3.org/1999/xhtml" style="display: table-cell; white-space: nowrap; line-height: 1.5; max-width: 126px; text-align: center;"><span class="nodeLabel markdown-node-label" style=""><p>VectorStore</p></span></div></foreignObject></g></g><g class="members-group text" transform="translate(-81.3671875, -3)"/><g class="methods-group text" transform="translate(-81.3671875, 27)"><g class="label" style="" transform="translate(0,-12)"><foreignObject width="117.828125" height="24"><div xmlns="http://www.w3.org/1999/xhtml" style="display: table-cell; white-space: nowrap; line-height: 1.5; max-width: 161px; text-align: center;"><span class="nodeLabel markdown-node-label" style=""><p>+upsertVectors()</p></span></div></foreignObject></g><g class="label" style="" transform="translate(0,12)"><foreignObject width="116.921875" height="24"><div xmlns="http://www.w3.org/1999/xhtml" style="display: table-cell; white-space: nowrap; line-height: 1.5; max-width: 162px; text-align: center;"><span class="nodeLabel markdown-node-label" style=""><p>+searchSimilar()</p></span></div></foreignObject></g></g><g class="divider" style=""><path d="M-93.3671875 -27 C-36.28204734256353 -26.999694297634502, 20.80309281487294 -26.999388595269, 93.3671875 -26.999 M-93.3671875 -27 C-26.52092883779919 -26.999642024888765, 40.32532982440162 -26.999284049777525, 93.3671875 -26.999" stroke="#9370DB" stroke-width="1.3" fill="none" stroke-dasharray="0 0" style=""/></g><g class="divider" style=""><path d="M-93.3671875 -3 C-36.509629496681846 -2.9996955163825443, 20.347928506636308 -2.999391032765089, 93.3671875 -2.999 M-93.3671875 -3 C-55.95469654635181 -2.999799648613419, -18.542205592703624 -2.9995992972268373, 93.3671875 -2.999" stroke="#9370DB" stroke-width="1.3" fill="none" stroke-dasharray="0 0" style=""/></g></g><g class="node default" id="my-svg-classId-LLMGateway-7" data-look="classic" transform="translate(792.3359375, 803)"><g class="basic label-container outer-path"><path d="M-114.28125 -75 L114.28125 -75 L114.28125 75 L-114.28125 75" stroke="none" stroke-width="0" fill="#ECECFF" style=""/><path d="M-114.28125 -75 C-46.87642673239414 -75, 20.528396535211726 -75, 114.28125 -75 M-114.28125 -75 C-61.33143033213554 -75, -8.38161066427108 -75, 114.28125 -75 M114.28125 -75 C114.28125 -26.0408025874872, 114.28125 22.9183948250256, 114.28125 75 M114.28125 -75 C114.28125 -18.807648536562816, 114.28125 37.38470292687437, 114.28125 75 M114.28125 75 C51.86792040900003 75, -10.545409181999943 75, -114.28125 75 M114.28125 75 C26.964942364899258 75, -60.351365270201484 75, -114.28125 75 M-114.28125 75 C-114.28125 35.039362934947476, -114.28125 -4.921274130105047, -114.28125 -75 M-114.28125 75 C-114.28125 22.36737755278395, -114.28125 -30.2652448944321, -114.28125 -75" stroke="#9370DB" stroke-width="1.3" fill="none" stroke-dasharray="0 0" style=""/></g><g class="annotation-group text" transform="translate(0, -51)"/><g class="label-group text" transform="translate(-49.34375, -51)"><g class="label" style="font-weight: bolder" transform="translate(0,-12)"><foreignObject width="98.6875" height="24"><div xmlns="http://www.w3.org/1999/xhtml" style="display: table-cell; white-space: nowrap; line-height: 1.5; max-width: 141px; text-align: center;"><span class="nodeLabel markdown-node-label" style=""><p>LLMGateway</p></span></div></foreignObject></g></g><g class="members-group text" transform="translate(-102.28125, -3)"/><g class="methods-group text" transform="translate(-102.28125, 27)"><g class="label" style="" transform="translate(0,-12)"><foreignObject width="155.21875" height="24"><div xmlns="http://www.w3.org/1999/xhtml" style="display: table-cell; white-space: nowrap; line-height: 1.5; max-width: 190px; text-align: center;"><span class="nodeLabel markdown-node-label" style=""><p>+generateResponse()</p></span></div></foreignObject></g><g class="label" style="" transform="translate(0,12)"><foreignObject width="98.265625" height="24"><div xmlns="http://www.w3.org/1999/xhtml" style="display: table-cell; white-space: nowrap; line-height: 1.5; max-width: 145px; text-align: center;"><span class="nodeLabel markdown-node-label" style=""><p>+embedText()</p></span></div></foreignObject></g></g><g class="divider" style=""><path d="M-114.28125 -27 C-31.818339289838278 -26.99963921067231, 50.644571420323444 -26.99927842134462, 114.28125 -26.999 M-114.28125 -27 C-57.081934615395866 -26.999749743219535, 0.11738076920826757 -26.999499486439074, 114.28125 -26.999" stroke="#9370DB" stroke-width="1.3" fill="none" stroke-dasharray="0 0" style=""/></g><g class="divider" style=""><path d="M-114.28125 -3 C-32.761073198307855 -2.9996433352942775, 48.75910360338429 -2.999286670588555, 114.28125 -2.999 M-114.28125 -3 C-45.04795994722508 -2.9996970925236957, 24.185330105549838 -2.9993941850473917, 114.28125 -2.999" stroke="#9370DB" stroke-width="1.3" fill="none" stroke-dasharray="0 0" style=""/></g></g></g></g></g><defs><filter id="my-svg-drop-shadow" height="130%" width="130%"><feDropShadow dx="4" dy="4" stdDeviation="0" flood-opacity="0.06" flood-color="#000000"/></filter></defs><defs><filter id="my-svg-drop-shadow-small" height="150%" width="150%"><feDropShadow dx="2" dy="2" stdDeviation="0" flood-opacity="0.06" flood-color="#000000"/></filter></defs></svg>